<svg xmlns="http://www.w3.org/2000/svg" xmlns:xlink="http://www.w3.org/1999/xlink" width="1280" zoomAndPan="magnify" viewBox="0 0 960 540.000001" height="720" preserveAspectRatio="xMidYMid meet" version="1.0"><defs><g/><clipPath id="45111300e1"><path d="M 151 27 L 180.382812 27 L 180.382812 49 L 151 49 Z M 151 27 " clip-rule="nonzero"/></clipPath><clipPath id="188bf1092f"><rect x="0" width="181" y="0" height="80"/></clipPath><clipPath id="0045d06c1e"><path d="M 359.621094 95 L 512.789062 95 L 512.789062 539 L 359.621094 539 Z M 359.621094 95 " clip-rule="nonzero"/></clipPath><clipPath id="c9e1b6ca70"><path d="M 402.144531 95.449219 C 413.972656 96.644531 414.945312 97.246094 416.21875 98.667969 C 418.164062 100.839844 420.558594 105.855469 421.308594 109.074219 C 421.984375 111.46875 421.984375 113.566406 421.683594 115.734375 C 421.382812 117.90625 420.859375 119.777344 419.585938 122.097656 C 417.640625 125.691406 413.148438 131.757812 409.855469 134.078125 C 407.609375 135.648438 404.6875 136.398438 402.894531 136.398438 C 401.769531 136.324219 400.871094 135.949219 400.199219 135.347656 C 399.449219 134.75 398.851562 133.851562 398.699219 132.953125 C 398.402344 131.980469 398.476562 130.707031 398.925781 129.734375 C 399.375 128.613281 400.273438 127.414062 401.546875 126.742188 C 403.191406 125.765625 406.261719 125.617188 408.28125 125.542969 C 410.003906 125.394531 411.578125 125.019531 412.847656 125.84375 C 414.570312 126.890625 416.070312 129.808594 416.816406 132.355469 C 417.714844 135.5 417.492188 140.140625 417.117188 143.585938 C 416.742188 146.578125 415.917969 149.273438 415.09375 151.820312 C 414.347656 154.140625 413.671875 156.160156 412.398438 158.105469 C 410.976562 160.203125 409.332031 161.777344 406.785156 163.722656 C 402.816406 166.867188 393.535156 170.984375 390.089844 173.679688 C 388.21875 175.101562 387.621094 175.625 386.347656 177.421875 C 384.101562 180.789062 380.808594 189.25 379.386719 193.21875 C 378.5625 195.464844 378.1875 196.285156 377.890625 198.683594 C 377.289062 203.324219 376.542969 213.28125 377.738281 219.042969 C 378.636719 223.609375 381.40625 228.175781 382.828125 230.949219 C 383.726562 232.59375 384.253906 233.867188 385.152344 234.617188 C 385.898438 235.214844 386.421875 235.289062 387.546875 235.515625 C 389.792969 236.113281 394.207031 236.414062 398.175781 236.636719 C 402.96875 236.863281 410.828125 237.757812 414.273438 236.710938 C 416.144531 236.113281 417.265625 235.066406 418.164062 234.089844 C 418.988281 233.191406 419.136719 231.921875 419.8125 231.171875 C 420.335938 230.5 421.609375 230.273438 421.757812 229.675781 C 421.90625 229.226562 421.234375 228.703125 421.160156 227.953125 C 421.085938 226.304688 422.582031 222.488281 422.65625 220.617188 C 422.65625 219.492188 422.65625 218.820312 422.132812 217.921875 C 421.535156 216.722656 419.8125 215.226562 418.761719 214.628906 C 418.089844 214.179688 417.714844 214.105469 416.667969 213.953125 C 414.046875 213.578125 405.0625 213.429688 402.292969 213.953125 C 401.019531 214.179688 400.796875 214.328125 399.75 214.851562 C 397.652344 216.050781 393.308594 219.269531 390.988281 221.738281 C 389.042969 223.835938 388.292969 226.082031 386.347656 228.476562 C 383.804688 231.695312 379.386719 235.4375 376.617188 239.03125 C 374.070312 242.25 371.824219 245.84375 370.253906 248.988281 C 368.980469 251.609375 368.308594 253.554688 367.410156 256.398438 C 366.285156 260.070312 364.789062 264.710938 364.265625 269.425781 C 363.589844 275.117188 362.992188 283.050781 364.636719 288.292969 C 366.0625 292.632812 369.804688 296.601562 372.050781 299.296875 C 373.546875 301.015625 374.371094 301.691406 376.390625 303.261719 C 379.835938 306.035156 386.199219 310.824219 391.8125 313.667969 C 397.800781 316.589844 403.867188 318.234375 411.425781 320.40625 C 421.609375 323.25 442.496094 327.96875 447.660156 328.492188 C 449.082031 328.640625 449.382812 328.792969 450.429688 328.492188 C 452.152344 328.042969 455.144531 326.246094 456.941406 324.824219 C 458.441406 323.625 459.488281 322.503906 460.761719 320.929688 C 462.332031 318.835938 464.578125 315.914062 465.253906 313.292969 C 465.925781 310.824219 465.777344 308.355469 465.253906 305.585938 C 464.652344 302.363281 462.40625 297.648438 461.285156 295.105469 C 460.6875 293.679688 460.460938 292.859375 459.636719 291.808594 C 458.589844 290.460938 456.792969 289.113281 455.070312 288.066406 C 453.273438 286.945312 450.878906 285.96875 449.007812 285.445312 C 447.585938 284.996094 446.535156 284.921875 444.890625 284.699219 C 442.71875 284.472656 439.648438 284.171875 437.179688 284.398438 C 434.933594 284.699219 432.988281 285.222656 430.816406 286.046875 C 428.34375 286.945312 425.5 288.441406 423.253906 289.789062 C 421.382812 290.984375 420.035156 291.734375 418.164062 293.457031 C 415.394531 296.078125 411.425781 301.167969 409.03125 304.609375 C 407.160156 307.378906 405.738281 309.328125 404.613281 312.472656 C 403.117188 316.738281 402.445312 322.203125 401.917969 328.265625 C 401.171875 336.652344 398.851562 349.003906 401.917969 357.988281 C 404.988281 367.195312 413.746094 376.628906 420.710938 382.617188 C 426.472656 387.707031 433.0625 390.328125 439.648438 393.246094 C 446.085938 396.089844 452.078125 398.710938 459.5625 399.984375 C 468.695312 401.554688 482.171875 401.40625 490.628906 400.507812 C 496.542969 399.835938 502.90625 397.886719 505.527344 396.988281 C 506.574219 396.617188 507.101562 396.464844 507.550781 396.015625 C 508 395.492188 508.148438 394.96875 508.296875 394.070312 C 508.671875 392.273438 508.894531 387.707031 508.296875 386.136719 C 508 385.3125 507.699219 385.160156 506.875 384.414062 C 504.777344 382.542969 498.414062 377.675781 493.398438 375.730469 C 488.160156 373.78125 482.246094 373.558594 475.957031 373.109375 C 468.695312 372.511719 457.542969 371.613281 452.375 372.808594 C 449.679688 373.484375 447.882812 374.53125 446.460938 375.878906 C 445.339844 377 444.816406 378.347656 444.214844 379.847656 C 443.542969 381.492188 443.09375 382.914062 442.71875 385.3125 C 442.121094 389.953125 441.894531 398.636719 442.71875 405.671875 C 443.542969 413.609375 447.359375 423.714844 448.332031 430.453125 C 449.082031 434.945312 448.632812 437.039062 449.308594 441.832031 C 450.355469 450.292969 454.472656 466.910156 455.371094 476.492188 C 455.96875 483.003906 454.621094 489.445312 455.519531 493.261719 C 456.042969 495.433594 457.242188 496.105469 457.765625 497.976562 C 458.441406 500.523438 458.289062 503.292969 458.441406 507.335938 C 458.738281 514.746094 459.488281 534.136719 458.515625 538.851562 C 458.214844 540.347656 457.765625 541.097656 457.242188 541.621094 C 456.941406 541.996094 456.492188 542.296875 456.042969 542.296875 C 455.519531 542.296875 454.398438 541.773438 454.097656 541.246094 C 453.796875 540.796875 453.875 539.75 454.246094 539.300781 C 454.621094 538.777344 455.820312 538.402344 456.417969 538.550781 C 456.941406 538.628906 457.542969 539.300781 457.691406 539.824219 C 457.839844 540.347656 457.617188 541.171875 457.316406 541.621094 C 456.941406 541.996094 456.195312 542.371094 455.59375 542.296875 C 454.996094 542.144531 454.097656 541.246094 453.949219 540.648438 C 453.796875 540.125 454.097656 539.300781 454.472656 538.925781 C 454.996094 538.550781 456.269531 538.402344 456.792969 538.703125 C 457.316406 538.925781 457.839844 539.824219 457.765625 540.347656 C 457.691406 541.023438 456.644531 542.070312 456.042969 542.296875 C 455.59375 542.445312 455.070312 542.222656 454.695312 541.921875 C 454.324219 541.621094 453.875 540.875 453.875 540.347656 C 453.875 539.824219 454.472656 539.75 454.621094 538.851562 C 455.519531 535.410156 454.773438 517.742188 454.546875 510.179688 C 454.398438 505.238281 454.621094 500.972656 453.796875 497.976562 C 453.273438 496.03125 452.078125 495.507812 451.550781 493.410156 C 450.65625 489.292969 452.152344 481.433594 451.402344 474.320312 C 450.503906 464.890625 446.535156 449.992188 445.488281 442.132812 C 444.816406 437.640625 445.1875 435.769531 444.441406 431.425781 C 443.394531 424.6875 439.648438 413.832031 438.75 405.75 C 437.929688 398.5625 438.078125 390.253906 438.75 385.238281 C 439.125 382.167969 439.722656 380.070312 440.621094 378.050781 C 441.371094 376.328125 442.195312 375.128906 443.46875 373.78125 C 445.113281 372.210938 446.910156 370.339844 449.980469 369.367188 C 455.519531 367.71875 467.871094 368.917969 475.285156 369.367188 C 481.199219 369.742188 487.710938 370.488281 491.15625 371.238281 C 492.800781 371.613281 493.25 371.761719 494.824219 372.511719 C 498.265625 374.082031 507.625 379.097656 510.242188 381.941406 C 511.515625 383.441406 511.816406 384.488281 512.191406 386.136719 C 512.640625 388.304688 512.339844 392.125 511.964844 394.144531 C 511.667969 395.492188 511.589844 396.390625 510.84375 397.289062 C 509.945312 398.488281 508.597656 399.386719 506.574219 400.207031 C 503.058594 401.78125 496.917969 402.980469 490.628906 403.578125 C 481.871094 404.402344 468.097656 404.550781 458.738281 402.902344 C 451.027344 401.554688 444.664062 398.710938 438.152344 396.015625 C 432.089844 393.546875 423.703125 389.203125 420.859375 387.484375 C 419.8125 386.882812 419.8125 386.957031 418.914062 386.058594 C 415.542969 382.914062 401.769531 369.664062 398.402344 360.082031 C 395.183594 351.023438 397.351562 339.046875 397.953125 330.664062 C 398.476562 324.222656 399.449219 318.308594 400.722656 313.742188 C 401.695312 310.523438 402.519531 308.355469 404.015625 305.660156 C 405.738281 302.515625 408.957031 298.621094 410.753906 296.300781 C 411.875 294.804688 412.398438 293.980469 413.671875 292.707031 C 415.320312 291.136719 417.640625 289.265625 419.960938 287.765625 C 422.355469 286.195312 425.203125 284.472656 427.820312 283.351562 C 430.066406 282.378906 432.015625 281.628906 434.558594 281.253906 C 437.480469 280.730469 440.921875 280.429688 444.292969 280.804688 C 448.035156 281.253906 452.75 282.601562 455.746094 284.097656 C 457.992188 285.222656 459.636719 286.792969 461.136719 288.214844 C 462.332031 289.488281 463.15625 290.460938 464.128906 292.183594 C 465.625 294.878906 467.796875 299.59375 468.621094 303.261719 C 469.292969 306.484375 469.292969 310.226562 468.996094 312.769531 C 468.769531 314.566406 468.472656 315.617188 467.648438 317.261719 C 466.375 319.65625 463.828125 323.027344 461.359375 325.421875 C 458.8125 327.894531 455.144531 331.035156 452.375 331.859375 C 450.578125 332.460938 449.757812 332.011719 447.285156 331.710938 C 440.546875 330.8125 420.261719 326.394531 410.378906 323.777344 C 403.566406 321.902344 397.652344 320.03125 393.386719 318.308594 C 390.691406 317.1875 389.417969 316.515625 386.871094 315.089844 C 383.203125 312.921875 377.363281 309.027344 373.695312 306.035156 C 370.851562 303.636719 368.679688 301.464844 366.585938 298.847656 C 364.5625 296.300781 362.46875 293.082031 361.34375 290.6875 C 360.671875 289.039062 360.371094 288.214844 360.148438 286.195312 C 359.621094 282.601562 359.699219 275.9375 360.445312 270.472656 C 361.269531 264.335938 363.214844 256.625 365.3125 251.160156 C 367.035156 246.816406 369.128906 243.375 371.226562 240.003906 C 373.171875 237.011719 374.59375 234.914062 377.289062 231.769531 C 381.332031 226.828125 389.867188 217.324219 393.910156 213.953125 C 395.929688 212.308594 397.054688 211.558594 398.851562 210.808594 C 400.648438 210.0625 402.367188 209.6875 404.539062 209.386719 C 407.382812 209.085938 411.800781 209.164062 414.570312 209.613281 C 416.59375 209.910156 418.015625 210.210938 419.660156 211.035156 C 421.609375 212.007812 424.304688 214.105469 425.351562 215.300781 C 425.875 215.976562 426.023438 216.425781 426.25 217.097656 C 426.550781 217.847656 426.847656 218.519531 426.921875 219.71875 C 427.074219 222.261719 426.398438 228.703125 425.050781 231.621094 C 424.152344 233.792969 422.730469 234.988281 421.085938 236.414062 C 419.289062 238.058594 417.640625 239.855469 414.570312 240.753906 C 408.957031 242.328125 394.207031 240.828125 388.820312 239.855469 C 386.347656 239.480469 384.703125 238.957031 383.429688 238.132812 C 382.605469 237.609375 382.304688 237.160156 381.632812 236.261719 C 380.210938 234.390625 377.8125 230.273438 376.464844 227.203125 C 375.195312 224.210938 374.222656 221.8125 373.695312 218.222656 C 372.875 213.128906 373.246094 203.921875 373.773438 199.355469 C 373.996094 196.734375 374.222656 195.386719 375.042969 193.140625 C 376.015625 190.222656 378.9375 186.253906 379.910156 183.636719 C 380.660156 181.761719 380.585938 180.265625 381.183594 178.84375 C 381.707031 177.570312 382.15625 176.597656 383.128906 175.398438 C 384.625 173.453125 387.023438 170.984375 389.867188 168.886719 C 393.683594 166.042969 401.097656 163.496094 404.539062 160.726562 C 406.785156 158.855469 408.058594 157.507812 409.40625 155.113281 C 411.050781 152.042969 412.398438 147.253906 412.925781 143.585938 C 413.375 140.289062 413.597656 136.621094 412.847656 134.152344 C 412.25 132.28125 411.351562 130.332031 409.929688 129.734375 C 408.28125 129.0625 404.242188 130.109375 403.191406 131.007812 C 402.59375 131.457031 402.21875 132.503906 402.445312 132.730469 C 402.816406 133.105469 405.8125 132.128906 407.535156 130.859375 C 410.304688 128.835938 414.570312 122.25 416.144531 119.554688 C 416.890625 118.207031 417.191406 117.53125 417.414062 116.335938 C 417.714844 114.988281 417.640625 113.566406 417.414062 111.992188 C 417.117188 110.046875 416.441406 107.425781 415.621094 105.480469 C 414.945312 103.832031 413.898438 102.035156 413 101.136719 C 412.476562 100.613281 412.175781 100.390625 411.351562 100.089844 C 409.40625 99.414062 402.742188 100.238281 401.246094 99.042969 C 400.496094 98.515625 400.121094 97.320312 400.347656 96.722656 C 400.496094 96.121094 402.144531 95.449219 402.144531 95.449219 " clip-rule="nonzero"/></clipPath><clipPath id="61a373e26c"><path d="M 0.621094 0.34375 L 153.789062 0.34375 L 153.789062 444 L 0.621094 444 Z M 0.621094 0.34375 " clip-rule="nonzero"/></clipPath><clipPath id="f41d7c8459"><path d="M 43.144531 0.449219 C 54.972656 1.644531 55.945312 2.246094 57.21875 3.667969 C 59.164062 5.839844 61.558594 10.855469 62.308594 14.074219 C 62.984375 16.46875 62.984375 18.566406 62.683594 20.734375 C 62.382812 22.90625 61.859375 24.777344 60.585938 27.097656 C 58.640625 30.691406 54.148438 36.757812 50.855469 39.078125 C 48.609375 40.648438 45.6875 41.398438 43.894531 41.398438 C 42.769531 41.324219 41.871094 40.949219 41.199219 40.347656 C 40.449219 39.75 39.851562 38.851562 39.699219 37.953125 C 39.402344 36.980469 39.476562 35.707031 39.925781 34.734375 C 40.375 33.613281 41.273438 32.414062 42.546875 31.742188 C 44.191406 30.765625 47.261719 30.617188 49.28125 30.542969 C 51.003906 30.394531 52.578125 30.019531 53.847656 30.84375 C 55.570312 31.890625 57.070312 34.808594 57.816406 37.355469 C 58.714844 40.5 58.492188 45.140625 58.117188 48.585938 C 57.742188 51.578125 56.917969 54.273438 56.09375 56.820312 C 55.347656 59.140625 54.671875 61.160156 53.398438 63.105469 C 51.976562 65.203125 50.332031 66.777344 47.785156 68.722656 C 43.816406 71.867188 34.535156 75.984375 31.089844 78.679688 C 29.21875 80.101562 28.621094 80.625 27.347656 82.421875 C 25.101562 85.789062 21.808594 94.25 20.386719 98.21875 C 19.5625 100.464844 19.1875 101.285156 18.890625 103.683594 C 18.289062 108.324219 17.542969 118.28125 18.738281 124.042969 C 19.636719 128.609375 22.40625 133.175781 23.828125 135.949219 C 24.726562 137.59375 25.253906 138.867188 26.152344 139.617188 C 26.898438 140.214844 27.421875 140.289062 28.546875 140.515625 C 30.792969 141.113281 35.207031 141.414062 39.175781 141.636719 C 43.96875 141.863281 51.828125 142.757812 55.273438 141.710938 C 57.144531 141.113281 58.265625 140.066406 59.164062 139.089844 C 59.988281 138.191406 60.136719 136.921875 60.8125 136.171875 C 61.335938 135.5 62.609375 135.273438 62.757812 134.675781 C 62.90625 134.226562 62.234375 133.703125 62.160156 132.953125 C 62.085938 131.304688 63.582031 127.488281 63.65625 125.617188 C 63.65625 124.492188 63.65625 123.820312 63.132812 122.921875 C 62.535156 121.722656 60.8125 120.226562 59.761719 119.628906 C 59.089844 119.179688 58.714844 119.105469 57.667969 118.953125 C 55.046875 118.578125 46.0625 118.429688 43.292969 118.953125 C 42.019531 119.179688 41.796875 119.328125 40.75 119.851562 C 38.652344 121.050781 34.308594 124.269531 31.988281 126.738281 C 30.042969 128.835938 29.292969 131.082031 27.347656 133.476562 C 24.804688 136.695312 20.386719 140.4375 17.617188 144.03125 C 15.070312 147.25 12.824219 150.84375 11.253906 153.988281 C 9.980469 156.609375 9.308594 158.554688 8.410156 161.398438 C 7.285156 165.070312 5.789062 169.710938 5.265625 174.425781 C 4.589844 180.117188 3.992188 188.050781 5.636719 193.292969 C 7.0625 197.632812 10.804688 201.601562 13.050781 204.296875 C 14.546875 206.015625 15.371094 206.691406 17.390625 208.261719 C 20.835938 211.035156 27.199219 215.824219 32.8125 218.667969 C 38.800781 221.589844 44.867188 223.234375 52.425781 225.40625 C 62.609375 228.25 83.496094 232.96875 88.660156 233.492188 C 90.082031 233.640625 90.382812 233.792969 91.429688 233.492188 C 93.152344 233.042969 96.144531 231.246094 97.941406 229.824219 C 99.441406 228.625 100.488281 227.503906 101.761719 225.929688 C 103.332031 223.835938 105.578125 220.914062 106.253906 218.292969 C 106.925781 215.824219 106.777344 213.355469 106.253906 210.585938 C 105.652344 207.363281 103.40625 202.648438 102.285156 200.105469 C 101.6875 198.679688 101.460938 197.859375 100.636719 196.808594 C 99.589844 195.460938 97.792969 194.113281 96.070312 193.066406 C 94.273438 191.945312 91.878906 190.96875 90.007812 190.445312 C 88.585938 189.996094 87.535156 189.921875 85.890625 189.699219 C 83.71875 189.472656 80.648438 189.171875 78.179688 189.398438 C 75.933594 189.699219 73.988281 190.222656 71.816406 191.046875 C 69.34375 191.945312 66.5 193.441406 64.253906 194.789062 C 62.382812 195.984375 61.035156 196.734375 59.164062 198.457031 C 56.394531 201.078125 52.425781 206.167969 50.03125 209.609375 C 48.160156 212.378906 46.738281 214.328125 45.613281 217.472656 C 44.117188 221.738281 43.445312 227.203125 42.917969 233.265625 C 42.171875 241.652344 39.851562 254.003906 42.917969 262.988281 C 45.988281 272.195312 54.746094 281.628906 61.710938 287.617188 C 67.472656 292.707031 74.0625 295.328125 80.648438 298.246094 C 87.085938 301.089844 93.078125 303.710938 100.5625 304.984375 C 109.695312 306.554688 123.171875 306.40625 131.628906 305.507812 C 137.542969 304.835938 143.90625 302.886719 146.527344 301.988281 C 147.574219 301.617188 148.101562 301.464844 148.550781 301.015625 C 149 300.492188 149.148438 299.96875 149.296875 299.070312 C 149.671875 297.273438 149.894531 292.707031 149.296875 291.136719 C 149 290.3125 148.699219 290.160156 147.875 289.414062 C 145.777344 287.542969 139.414062 282.675781 134.398438 280.730469 C 129.160156 278.78125 123.246094 278.558594 116.957031 278.109375 C 109.695312 277.511719 98.542969 276.613281 93.375 277.808594 C 90.679688 278.484375 88.882812 279.53125 87.460938 280.878906 C 86.339844 282 85.816406 283.347656 85.214844 284.847656 C 84.542969 286.492188 84.09375 287.914062 83.71875 290.3125 C 83.121094 294.953125 82.894531 303.636719 83.71875 310.671875 C 84.542969 318.609375 88.359375 328.714844 89.332031 335.453125 C 90.082031 339.945312 89.632812 342.039062 90.308594 346.832031 C 91.355469 355.292969 95.472656 371.910156 96.371094 381.492188 C 96.96875 388.003906 95.621094 394.445312 96.519531 398.261719 C 97.042969 400.433594 98.242188 401.105469 98.765625 402.976562 C 99.441406 405.523438 99.289062 408.292969 99.441406 412.335938 C 99.738281 419.746094 100.488281 439.136719 99.515625 443.851562 C 99.214844 445.347656 98.765625 446.097656 98.242188 446.621094 C 97.941406 446.996094 97.492188 447.296875 97.042969 447.296875 C 96.519531 447.296875 95.398438 446.773438 95.097656 446.246094 C 94.796875 445.796875 94.875 444.75 95.246094 444.300781 C 95.621094 443.777344 96.820312 443.402344 97.417969 443.550781 C 97.941406 443.628906 98.542969 444.300781 98.691406 444.824219 C 98.839844 445.347656 98.617188 446.171875 98.316406 446.621094 C 97.941406 446.996094 97.195312 447.371094 96.59375 447.296875 C 95.996094 447.144531 95.097656 446.246094 94.949219 445.648438 C 94.796875 445.125 95.097656 444.300781 95.472656 443.925781 C 95.996094 443.550781 97.269531 443.402344 97.792969 443.703125 C 98.316406 443.925781 98.839844 444.824219 98.765625 445.347656 C 98.691406 446.023438 97.644531 447.070312 97.042969 447.296875 C 96.59375 447.445312 96.070312 447.222656 95.695312 446.921875 C 95.324219 446.621094 94.875 445.875 94.875 445.347656 C 94.875 444.824219 95.472656 444.75 95.621094 443.851562 C 96.519531 440.410156 95.773438 422.742188 95.546875 415.179688 C 95.398438 410.238281 95.621094 405.972656 94.796875 402.976562 C 94.273438 401.03125 93.078125 400.507812 92.550781 398.410156 C 91.65625 394.292969 93.152344 386.433594 92.402344 379.320312 C 91.503906 369.890625 87.535156 354.992188 86.488281 347.132812 C 85.816406 342.640625 86.1875 340.769531 85.441406 336.425781 C 84.394531 329.6875 80.648438 318.832031 79.75 310.75 C 78.929688 303.5625 79.078125 295.253906 79.75 290.238281 C 80.125 287.167969 80.722656 285.070312 81.621094 283.050781 C 82.371094 281.328125 83.195312 280.128906 84.46875 278.78125 C 86.113281 277.210938 87.910156 275.339844 90.980469 274.367188 C 96.519531 272.71875 108.871094 273.917969 116.285156 274.367188 C 122.199219 274.742188 128.710938 275.488281 132.15625 276.238281 C 133.800781 276.613281 134.25 276.761719 135.824219 277.511719 C 139.265625 279.082031 148.625 284.097656 151.242188 286.941406 C 152.515625 288.441406 152.816406 289.488281 153.191406 291.136719 C 153.640625 293.304688 153.339844 297.125 152.964844 299.144531 C 152.667969 300.492188 152.589844 301.390625 151.84375 302.289062 C 150.945312 303.488281 149.597656 304.386719 147.574219 305.207031 C 144.058594 306.78125 137.917969 307.980469 131.628906 308.578125 C 122.871094 309.402344 109.097656 309.550781 99.738281 307.902344 C 92.027344 306.554688 85.664062 303.710938 79.152344 301.015625 C 73.089844 298.546875 64.703125 294.203125 61.859375 292.484375 C 60.8125 291.882812 60.8125 291.957031 59.914062 291.058594 C 56.542969 287.914062 42.769531 274.664062 39.402344 265.082031 C 36.183594 256.023438 38.351562 244.046875 38.953125 235.664062 C 39.476562 229.222656 40.449219 223.308594 41.722656 218.742188 C 42.695312 215.523438 43.519531 213.355469 45.015625 210.660156 C 46.738281 207.515625 49.957031 203.621094 51.753906 201.300781 C 52.875 199.804688 53.398438 198.980469 54.671875 197.707031 C 56.320312 196.136719 58.640625 194.265625 60.960938 192.765625 C 63.355469 191.195312 66.203125 189.472656 68.820312 188.351562 C 71.066406 187.378906 73.015625 186.628906 75.558594 186.253906 C 78.480469 185.730469 81.921875 185.429688 85.292969 185.804688 C 89.035156 186.253906 93.75 187.601562 96.746094 189.097656 C 98.992188 190.222656 100.636719 191.792969 102.136719 193.214844 C 103.332031 194.488281 104.15625 195.460938 105.128906 197.183594 C 106.625 199.878906 108.796875 204.59375 109.621094 208.261719 C 110.292969 211.484375 110.292969 215.226562 109.996094 217.769531 C 109.769531 219.566406 109.472656 220.617188 108.648438 222.261719 C 107.375 224.65625 104.828125 228.027344 102.359375 230.421875 C 99.8125 232.894531 96.144531 236.035156 93.375 236.859375 C 91.578125 237.460938 90.757812 237.011719 88.285156 236.710938 C 81.546875 235.8125 61.261719 231.394531 51.378906 228.777344 C 44.566406 226.902344 38.652344 225.03125 34.386719 223.308594 C 31.691406 222.1875 30.417969 221.515625 27.871094 220.089844 C 24.203125 217.921875 18.363281 214.027344 14.695312 211.035156 C 11.851562 208.636719 9.679688 206.464844 7.585938 203.847656 C 5.5625 201.300781 3.46875 198.082031 2.34375 195.6875 C 1.671875 194.039062 1.371094 193.214844 1.148438 191.195312 C 0.621094 187.601562 0.699219 180.9375 1.445312 175.472656 C 2.269531 169.335938 4.214844 161.625 6.3125 156.160156 C 8.035156 151.816406 10.128906 148.375 12.226562 145.003906 C 14.171875 142.011719 15.59375 139.914062 18.289062 136.769531 C 22.332031 131.828125 30.867188 122.324219 34.910156 118.953125 C 36.929688 117.308594 38.054688 116.558594 39.851562 115.808594 C 41.648438 115.0625 43.367188 114.6875 45.539062 114.386719 C 48.382812 114.085938 52.800781 114.164062 55.570312 114.613281 C 57.59375 114.910156 59.015625 115.210938 60.660156 116.035156 C 62.609375 117.007812 65.304688 119.105469 66.351562 120.300781 C 66.875 120.976562 67.023438 121.425781 67.25 122.097656 C 67.550781 122.847656 67.847656 123.519531 67.921875 124.71875 C 68.074219 127.261719 67.398438 133.703125 66.050781 136.621094 C 65.152344 138.792969 63.730469 139.988281 62.085938 141.414062 C 60.289062 143.058594 58.640625 144.855469 55.570312 145.753906 C 49.957031 147.328125 35.207031 145.828125 29.820312 144.855469 C 27.347656 144.480469 25.703125 143.957031 24.429688 143.132812 C 23.605469 142.609375 23.304688 142.160156 22.632812 141.261719 C 21.210938 139.390625 18.8125 135.273438 17.464844 132.203125 C 16.195312 129.210938 15.222656 126.8125 14.695312 123.222656 C 13.875 118.128906 14.246094 108.921875 14.773438 104.355469 C 14.996094 101.734375 15.222656 100.386719 16.042969 98.140625 C 17.015625 95.222656 19.9375 91.253906 20.910156 88.636719 C 21.660156 86.761719 21.585938 85.265625 22.183594 83.84375 C 22.707031 82.570312 23.15625 81.597656 24.128906 80.398438 C 25.625 78.453125 28.023438 75.984375 30.867188 73.886719 C 34.683594 71.042969 42.097656 68.496094 45.539062 65.726562 C 47.785156 63.855469 49.058594 62.507812 50.40625 60.113281 C 52.050781 57.042969 53.398438 52.253906 53.925781 48.585938 C 54.375 45.289062 54.597656 41.621094 53.847656 39.152344 C 53.25 37.28125 52.351562 35.332031 50.929688 34.734375 C 49.28125 34.0625 45.242188 35.109375 44.191406 36.007812 C 43.59375 36.457031 43.21875 37.503906 43.445312 37.730469 C 43.816406 38.105469 46.8125 37.128906 48.535156 35.859375 C 51.304688 33.835938 55.570312 27.25 57.144531 24.554688 C 57.890625 23.207031 58.191406 22.53125 58.414062 21.335938 C 58.714844 19.988281 58.640625 18.566406 58.414062 16.992188 C 58.117188 15.046875 57.441406 12.425781 56.621094 10.480469 C 55.945312 8.832031 54.898438 7.035156 54 6.136719 C 53.476562 5.613281 53.175781 5.390625 52.351562 5.089844 C 50.40625 4.414062 43.742188 5.238281 42.246094 4.042969 C 41.496094 3.515625 41.121094 2.320312 41.347656 1.722656 C 41.496094 1.121094 43.144531 0.449219 43.144531 0.449219 " clip-rule="nonzero"/></clipPath><clipPath id="1233f35f93"><rect x="0" width="154" y="0" height="444"/></clipPath></defs><g transform="matrix(1, 0, 0, 1, 222, 66)"><g clip-path="url(#188bf1092f)"><g fill="#fdffee" fill-opacity="1"><g transform="translate(0.554744, 57.249806)"><g><path d="M 9.875 -15.515625 C 9.914062 -15.546875 9.972656 -15.5625 10.046875 -15.5625 C 10.046875 -15.5625 10.066406 -15.582031 10.109375 -15.625 C 10.109375 -15.625 10.128906 -15.625 10.171875 -15.625 C 10.171875 -15.625 10.316406 -15.726562 10.609375 -15.9375 C 10.648438 -15.976562 10.695312 -16.03125 10.75 -16.09375 C 10.8125 -16.15625 10.863281 -16.207031 10.90625 -16.25 C 10.988281 -16.289062 11.09375 -16.367188 11.21875 -16.484375 C 11.257812 -16.523438 11.28125 -16.566406 11.28125 -16.609375 C 11.644531 -17.097656 11.953125 -17.710938 12.203125 -18.453125 L 12.265625 -18.703125 C 12.628906 -19.878906 12.8125 -20.859375 12.8125 -21.640625 L 12.875 -22.796875 C 12.875 -22.921875 12.894531 -23.023438 12.9375 -23.109375 C 12.9375 -23.191406 12.9375 -23.332031 12.9375 -23.53125 C 12.9375 -23.738281 12.9375 -24.003906 12.9375 -24.328125 C 12.9375 -24.984375 12.914062 -25.578125 12.875 -26.109375 C 12.832031 -26.640625 12.769531 -27.109375 12.6875 -27.515625 C 12.6875 -28.046875 12.625 -28.457031 12.5 -28.75 C 12.457031 -28.988281 12.414062 -29.222656 12.375 -29.453125 C 12.34375 -29.679688 12.285156 -29.875 12.203125 -30.03125 C 12.160156 -30.40625 12.085938 -30.785156 11.984375 -31.171875 C 11.878906 -31.554688 11.742188 -31.953125 11.578125 -32.359375 C 11.421875 -32.773438 11.269531 -33.15625 11.125 -33.5 C 10.976562 -33.84375 10.804688 -34.160156 10.609375 -34.453125 C 10.566406 -34.609375 10.503906 -34.769531 10.421875 -34.9375 C 10.335938 -35.101562 10.253906 -35.265625 10.171875 -35.421875 C 10.015625 -35.753906 9.707031 -36.144531 9.25 -36.59375 C 9.207031 -36.550781 9.148438 -36.53125 9.078125 -36.53125 C 8.992188 -36.53125 8.890625 -36.445312 8.765625 -36.28125 C 8.398438 -36.082031 8.132812 -35.835938 7.96875 -35.546875 L 7.84375 -35.375 C 7.644531 -35.082031 7.472656 -34.820312 7.328125 -34.59375 C 7.179688 -34.375 7.066406 -34.179688 6.984375 -34.015625 C 6.941406 -33.972656 6.878906 -33.851562 6.796875 -33.65625 C 6.765625 -33.570312 6.726562 -33.445312 6.6875 -33.28125 C 6.644531 -33.113281 6.582031 -32.910156 6.5 -32.671875 L 6.125 -31.203125 C 6.082031 -31.160156 6.0625 -31.035156 6.0625 -30.828125 C 6.019531 -30.742188 6 -30.640625 6 -30.515625 C 6 -30.398438 5.984375 -30.257812 5.953125 -30.09375 C 5.910156 -29.9375 5.878906 -29.765625 5.859375 -29.578125 C 5.835938 -29.390625 5.785156 -29.15625 5.703125 -28.875 C 5.703125 -28.707031 5.691406 -28.539062 5.671875 -28.375 C 5.648438 -28.21875 5.617188 -28.054688 5.578125 -27.890625 C 5.535156 -27.609375 5.515625 -27.300781 5.515625 -26.96875 C 5.515625 -26.644531 5.515625 -26.316406 5.515625 -25.984375 L 5.515625 -25.1875 C 5.597656 -24.695312 5.660156 -24.269531 5.703125 -23.90625 C 5.742188 -23.539062 5.765625 -23.210938 5.765625 -22.921875 C 5.921875 -22.429688 6 -21.984375 6 -21.578125 C 6.039062 -21.492188 6.070312 -21.378906 6.09375 -21.234375 C 6.113281 -21.097656 6.144531 -20.945312 6.1875 -20.78125 L 6.3125 -20.296875 C 6.476562 -20.003906 6.722656 -19.242188 7.046875 -18.015625 C 7.085938 -17.972656 7.148438 -17.875 7.234375 -17.71875 C 7.273438 -17.632812 7.316406 -17.5625 7.359375 -17.5 C 7.398438 -17.4375 7.441406 -17.363281 7.484375 -17.28125 C 7.523438 -17.164062 7.625 -17.023438 7.78125 -16.859375 C 7.820312 -16.734375 7.925781 -16.585938 8.09375 -16.421875 C 8.332031 -16.265625 8.523438 -16.132812 8.671875 -16.03125 C 8.816406 -15.925781 8.910156 -15.851562 8.953125 -15.8125 C 8.992188 -15.769531 9.054688 -15.75 9.140625 -15.75 C 9.171875 -15.707031 9.226562 -15.6875 9.3125 -15.6875 C 9.351562 -15.644531 9.394531 -15.625 9.4375 -15.625 C 9.476562 -15.625 9.519531 -15.601562 9.5625 -15.5625 C 9.601562 -15.53125 9.664062 -15.515625 9.75 -15.515625 Z M 10.546875 -10.671875 L 9.015625 -10.671875 L 8.453125 -10.78125 C 7.472656 -10.988281 6.492188 -11.460938 5.515625 -12.203125 L 5.203125 -12.375 C 4.109375 -13.320312 3.210938 -14.59375 2.515625 -16.1875 C 2.347656 -16.800781 2.164062 -17.289062 1.96875 -17.65625 C 1.84375 -18.351562 1.695312 -18.863281 1.53125 -19.1875 L 1.40625 -19.734375 C 1.363281 -20.179688 1.289062 -20.597656 1.1875 -20.984375 C 1.09375 -21.378906 1.003906 -21.757812 0.921875 -22.125 C 0.835938 -22.90625 0.773438 -23.539062 0.734375 -24.03125 C 0.691406 -24.519531 0.671875 -24.882812 0.671875 -25.125 L 0.609375 -26.671875 L 0.671875 -28.140625 L 0.859375 -29.546875 C 0.941406 -29.828125 0.992188 -30.070312 1.015625 -30.28125 C 1.035156 -30.488281 1.066406 -30.671875 1.109375 -30.828125 C 1.109375 -31.203125 1.128906 -31.445312 1.171875 -31.5625 L 1.46875 -32.859375 C 1.675781 -33.710938 1.859375 -34.382812 2.015625 -34.875 C 2.097656 -35.082031 2.191406 -35.273438 2.296875 -35.453125 C 2.398438 -35.640625 2.472656 -35.816406 2.515625 -35.984375 L 2.578125 -36.171875 C 2.898438 -36.859375 3.253906 -37.46875 3.640625 -38 C 4.035156 -38.53125 4.4375 -38.984375 4.84375 -39.359375 C 5.988281 -40.578125 7.171875 -41.269531 8.390625 -41.4375 C 9.128906 -41.644531 9.742188 -41.75 10.234375 -41.75 C 11.097656 -41.75 11.734375 -41.625 12.140625 -41.375 C 12.503906 -41.25 12.8125 -41.066406 13.0625 -40.828125 L 13.171875 -40.765625 C 13.953125 -40.109375 14.34375 -39.390625 14.34375 -38.609375 L 14.28125 -38 C 15.257812 -36.363281 15.875 -35.015625 16.125 -33.953125 C 16.320312 -33.460938 16.460938 -33.015625 16.546875 -32.609375 C 16.628906 -32.398438 16.710938 -32.171875 16.796875 -31.921875 C 16.878906 -31.679688 16.941406 -31.441406 16.984375 -31.203125 C 17.347656 -29.847656 17.53125 -28.847656 17.53125 -28.203125 C 17.613281 -27.953125 17.664062 -27.703125 17.6875 -27.453125 C 17.707031 -27.210938 17.738281 -26.96875 17.78125 -26.71875 C 17.820312 -26.476562 17.84375 -26.171875 17.84375 -25.796875 C 17.84375 -25.429688 17.84375 -25.023438 17.84375 -24.578125 C 17.84375 -24.296875 17.84375 -24.019531 17.84375 -23.75 C 17.84375 -23.488281 17.84375 -23.210938 17.84375 -22.921875 C 17.800781 -22.640625 17.78125 -22.394531 17.78125 -22.1875 C 17.78125 -21.988281 17.78125 -21.847656 17.78125 -21.765625 C 17.738281 -21.640625 17.71875 -21.472656 17.71875 -21.265625 C 17.71875 -20.816406 17.65625 -20.367188 17.53125 -19.921875 C 17.53125 -19.390625 17.390625 -18.695312 17.109375 -17.84375 C 16.578125 -15.957031 15.898438 -14.523438 15.078125 -13.546875 C 13.648438 -11.867188 12.140625 -10.910156 10.546875 -10.671875 Z M 10.546875 -10.671875 "/></g></g></g><g fill="#fdffee" fill-opacity="1"><g transform="translate(18.944411, 57.249806)"><g><path d="M 3.4375 -8.28125 C 3.019531 -8.28125 2.585938 -8.398438 2.140625 -8.640625 C 1.367188 -9.046875 0.984375 -9.820312 0.984375 -10.96875 C 0.984375 -12.40625 0.984375 -13.519531 0.984375 -14.3125 C 0.984375 -15.113281 0.984375 -15.570312 0.984375 -15.6875 C 0.941406 -15.8125 0.921875 -17.082031 0.921875 -19.5 C 0.921875 -21.457031 0.910156 -22.988281 0.890625 -24.09375 C 0.867188 -25.195312 0.835938 -25.847656 0.796875 -26.046875 C 0.796875 -27.023438 0.773438 -27.578125 0.734375 -27.703125 C 0.734375 -27.992188 0.734375 -28.195312 0.734375 -28.3125 C 0.734375 -28.4375 0.734375 -28.519531 0.734375 -28.5625 C 0.691406 -28.601562 0.671875 -28.664062 0.671875 -28.75 C 0.671875 -28.789062 0.671875 -28.84375 0.671875 -28.90625 C 0.671875 -28.96875 0.671875 -29.019531 0.671875 -29.0625 C 0.628906 -29.132812 0.609375 -29.234375 0.609375 -29.359375 C 0.609375 -30.253906 0.875 -30.910156 1.40625 -31.328125 C 1.851562 -31.734375 2.40625 -31.9375 3.0625 -31.9375 C 3.675781 -31.9375 4.226562 -31.753906 4.71875 -31.390625 C 5.207031 -30.972656 5.472656 -30.398438 5.515625 -29.671875 C 5.554688 -29.671875 5.578125 -29.671875 5.578125 -29.671875 C 5.578125 -29.671875 5.597656 -29.671875 5.640625 -29.671875 C 5.640625 -29.671875 5.640625 -29.691406 5.640625 -29.734375 L 6.859375 -30.03125 C 7.429688 -30.15625 8.066406 -30.21875 8.765625 -30.21875 C 9.378906 -30.21875 9.921875 -30.1875 10.390625 -30.125 C 10.859375 -30.0625 11.253906 -29.988281 11.578125 -29.90625 L 11.765625 -29.859375 C 11.972656 -29.859375 12.34375 -29.753906 12.875 -29.546875 L 13.359375 -29.421875 C 13.648438 -29.378906 13.914062 -29.316406 14.15625 -29.234375 C 14.40625 -29.148438 14.609375 -29.070312 14.765625 -29 L 15.015625 -28.9375 C 15.179688 -28.894531 15.34375 -28.863281 15.5 -28.84375 C 15.664062 -28.820312 15.832031 -28.789062 16 -28.75 C 16.207031 -28.707031 16.398438 -28.664062 16.578125 -28.625 C 16.765625 -28.582031 16.941406 -28.519531 17.109375 -28.4375 C 17.640625 -28.351562 18.054688 -28.289062 18.359375 -28.25 C 18.660156 -28.21875 18.894531 -28.203125 19.0625 -28.203125 C 19.226562 -28.203125 19.367188 -28.203125 19.484375 -28.203125 C 19.609375 -28.203125 19.710938 -28.203125 19.796875 -28.203125 C 19.921875 -28.160156 20.101562 -28.140625 20.34375 -28.140625 C 20.550781 -28.140625 20.726562 -28.140625 20.875 -28.140625 C 21.019531 -28.140625 21.128906 -28.140625 21.203125 -28.140625 C 21.285156 -28.097656 21.367188 -28.078125 21.453125 -28.078125 C 21.660156 -28.078125 21.820312 -28.097656 21.9375 -28.140625 C 22.019531 -28.140625 22.101562 -28.140625 22.1875 -28.140625 C 22.269531 -28.140625 22.351562 -28.140625 22.4375 -28.140625 C 22.519531 -28.140625 22.609375 -28.140625 22.703125 -28.140625 C 22.804688 -28.140625 22.898438 -28.140625 22.984375 -28.140625 C 23.878906 -28.140625 24.554688 -27.789062 25.015625 -27.09375 C 25.335938 -26.644531 25.5 -26.195312 25.5 -25.75 C 25.5 -25.414062 25.394531 -25.046875 25.1875 -24.640625 C 24.863281 -23.828125 24.148438 -23.359375 23.046875 -23.234375 L 21.390625 -23.171875 L 20.171875 -23.234375 C 20.085938 -23.234375 19.984375 -23.234375 19.859375 -23.234375 C 19.734375 -23.234375 19.628906 -23.253906 19.546875 -23.296875 C 19.429688 -23.296875 19.320312 -23.296875 19.21875 -23.296875 C 19.113281 -23.296875 19.019531 -23.296875 18.9375 -23.296875 C 18.738281 -23.296875 18.617188 -23.316406 18.578125 -23.359375 L 17.53125 -23.421875 L 14.890625 -23.90625 L 13.234375 -24.390625 C 12.828125 -24.515625 12.476562 -24.609375 12.1875 -24.671875 C 11.90625 -24.734375 11.6875 -24.785156 11.53125 -24.828125 C 11.488281 -24.867188 11.4375 -24.898438 11.375 -24.921875 C 11.3125 -24.941406 11.238281 -24.972656 11.15625 -25.015625 C 11.03125 -25.054688 10.890625 -25.078125 10.734375 -25.078125 C 10.566406 -25.109375 10.421875 -25.132812 10.296875 -25.15625 C 10.171875 -25.175781 10.066406 -25.1875 9.984375 -25.1875 L 8.765625 -25.3125 L 7.84375 -25.25 C 7.269531 -25.132812 6.882812 -24.992188 6.6875 -24.828125 C 6.5625 -24.828125 6.476562 -24.804688 6.4375 -24.765625 C 6.394531 -24.722656 6.363281 -24.691406 6.34375 -24.671875 C 6.320312 -24.648438 6.289062 -24.617188 6.25 -24.578125 C 6.050781 -24.378906 5.953125 -24.257812 5.953125 -24.21875 C 5.953125 -24.175781 5.910156 -24.113281 5.828125 -24.03125 L 5.765625 -23.90625 C 5.765625 -23.695312 5.785156 -23.535156 5.828125 -23.421875 C 5.828125 -23.335938 5.828125 -22.691406 5.828125 -21.484375 C 5.828125 -20.273438 5.828125 -18.53125 5.828125 -16.25 C 5.867188 -16.039062 5.890625 -15.484375 5.890625 -14.578125 C 5.890625 -13.679688 5.890625 -12.457031 5.890625 -10.90625 C 5.890625 -9.800781 5.457031 -9.023438 4.59375 -8.578125 C 4.1875 -8.378906 3.800781 -8.28125 3.4375 -8.28125 Z M 3.4375 -8.28125 "/></g></g></g><g fill="#fdffee" fill-opacity="1"><g transform="translate(39.418242, 57.249806)"><g><path d="M 4.46875 14.34375 L 5.203125 14.28125 C 6.148438 14.070312 6.804688 13.785156 7.171875 13.421875 L 8.03125 12.625 L 9.015625 11.21875 C 9.253906 10.894531 9.4375 10.546875 9.5625 10.171875 L 9.875 9.625 C 10.03125 9.332031 10.171875 8.984375 10.296875 8.578125 L 11.03125 6.6875 L 11.46875 5.328125 C 11.914062 3.859375 12.140625 2.941406 12.140625 2.578125 C 12.179688 2.492188 12.226562 2.335938 12.28125 2.109375 C 12.34375 1.890625 12.394531 1.59375 12.4375 1.21875 L 12.5 1.046875 C 12.582031 0.835938 12.632812 0.640625 12.65625 0.453125 C 12.675781 0.273438 12.707031 0.101562 12.75 -0.0625 C 12.75 -0.300781 12.789062 -0.585938 12.875 -0.921875 C 12.914062 -1.046875 12.9375 -1.144531 12.9375 -1.21875 C 12.9375 -1.300781 12.9375 -1.363281 12.9375 -1.40625 C 12.769531 -1.363281 12.335938 -0.9375 11.640625 -0.125 L 10.234375 1.34375 C 10.066406 1.46875 9.867188 1.660156 9.640625 1.921875 C 9.421875 2.191406 9.148438 2.53125 8.828125 2.9375 L 6.859375 5.03125 C 6.535156 5.394531 6.226562 5.726562 5.9375 6.03125 C 5.65625 6.34375 5.394531 6.617188 5.15625 6.859375 C 4.65625 7.429688 4.265625 7.898438 3.984375 8.265625 C 3.703125 8.640625 3.519531 8.890625 3.4375 9.015625 C 3.269531 9.296875 3.082031 9.539062 2.875 9.75 C 2.832031 9.789062 2.8125 9.832031 2.8125 9.875 C 2.8125 9.914062 2.796875 9.953125 2.765625 9.984375 C 2.722656 10.023438 2.703125 10.066406 2.703125 10.109375 C 2.703125 10.148438 2.679688 10.191406 2.640625 10.234375 C 2.554688 10.398438 2.492188 10.546875 2.453125 10.671875 C 2.410156 10.785156 2.304688 11.007812 2.140625 11.34375 C 2.140625 11.46875 2.097656 11.648438 2.015625 11.890625 C 2.015625 12.015625 2.035156 12.097656 2.078125 12.140625 C 2.078125 12.179688 2.078125 12.226562 2.078125 12.28125 C 2.078125 12.34375 2.078125 12.414062 2.078125 12.5 C 2.078125 12.664062 2.097656 12.769531 2.140625 12.8125 C 2.179688 12.851562 2.203125 12.894531 2.203125 12.9375 C 2.203125 12.976562 2.222656 13.019531 2.265625 13.0625 C 2.304688 13.101562 2.347656 13.140625 2.390625 13.171875 C 2.429688 13.210938 2.472656 13.273438 2.515625 13.359375 C 2.554688 13.398438 2.597656 13.453125 2.640625 13.515625 C 2.679688 13.578125 2.722656 13.648438 2.765625 13.734375 C 2.796875 13.773438 3 13.914062 3.375 14.15625 Z M 10.234375 -13.671875 C 10.316406 -13.710938 10.390625 -13.734375 10.453125 -13.734375 C 10.515625 -13.734375 10.566406 -13.753906 10.609375 -13.796875 C 10.648438 -13.835938 10.789062 -13.894531 11.03125 -13.96875 C 11.28125 -14.050781 11.445312 -14.113281 11.53125 -14.15625 C 11.6875 -14.238281 11.785156 -14.300781 11.828125 -14.34375 C 11.867188 -14.382812 11.921875 -14.425781 11.984375 -14.46875 C 12.046875 -14.507812 12.097656 -14.550781 12.140625 -14.59375 C 12.222656 -14.632812 12.363281 -14.753906 12.5625 -14.953125 C 12.726562 -15.117188 12.832031 -15.265625 12.875 -15.390625 C 12.914062 -15.472656 12.957031 -15.539062 13 -15.59375 C 13.039062 -15.65625 13.082031 -15.707031 13.125 -15.75 C 13.15625 -15.789062 13.210938 -15.9375 13.296875 -16.1875 C 13.335938 -16.269531 13.390625 -16.359375 13.453125 -16.453125 C 13.515625 -16.554688 13.566406 -16.691406 13.609375 -16.859375 C 13.648438 -16.984375 13.691406 -17.101562 13.734375 -17.21875 C 13.773438 -17.34375 13.816406 -17.488281 13.859375 -17.65625 C 13.898438 -17.78125 13.921875 -17.910156 13.921875 -18.046875 C 13.921875 -18.191406 13.9375 -18.347656 13.96875 -18.515625 C 13.96875 -18.671875 13.96875 -18.820312 13.96875 -18.96875 C 13.96875 -19.113281 13.96875 -19.269531 13.96875 -19.4375 C 13.96875 -19.632812 13.953125 -19.753906 13.921875 -19.796875 C 13.878906 -19.835938 13.828125 -19.890625 13.765625 -19.953125 C 13.703125 -20.015625 13.628906 -20.085938 13.546875 -20.171875 C 13.460938 -20.253906 13.359375 -20.34375 13.234375 -20.4375 C 13.117188 -20.539062 12.957031 -20.675781 12.75 -20.84375 L 12.4375 -21.09375 C 12.15625 -21.414062 11.707031 -21.679688 11.09375 -21.890625 C 10.925781 -22.046875 10.703125 -22.125 10.421875 -22.125 C 10.253906 -22.207031 9.882812 -22.25 9.3125 -22.25 C 8.582031 -22.25 7.972656 -22.144531 7.484375 -21.9375 L 7.234375 -21.890625 C 6.941406 -21.722656 6.65625 -21.492188 6.375 -21.203125 C 6.207031 -21.046875 6.09375 -20.925781 6.03125 -20.84375 C 5.976562 -20.757812 5.929688 -20.695312 5.890625 -20.65625 C 5.847656 -20.613281 5.828125 -20.570312 5.828125 -20.53125 C 5.828125 -20.488281 5.804688 -20.445312 5.765625 -20.40625 C 5.554688 -19.875 5.453125 -19.34375 5.453125 -18.8125 C 5.453125 -18.445312 5.515625 -18.039062 5.640625 -17.59375 C 5.765625 -17.226562 5.882812 -16.941406 6 -16.734375 C 6.039062 -16.609375 6.144531 -16.425781 6.3125 -16.1875 C 6.394531 -16.0625 6.503906 -15.90625 6.640625 -15.71875 C 6.785156 -15.539062 6.960938 -15.304688 7.171875 -15.015625 C 7.210938 -14.972656 7.253906 -14.941406 7.296875 -14.921875 C 7.335938 -14.898438 7.378906 -14.867188 7.421875 -14.828125 C 7.460938 -14.785156 7.5 -14.742188 7.53125 -14.703125 C 7.570312 -14.671875 7.613281 -14.632812 7.65625 -14.59375 C 7.78125 -14.507812 8.046875 -14.363281 8.453125 -14.15625 C 8.910156 -13.957031 9.238281 -13.835938 9.4375 -13.796875 C 9.6875 -13.710938 9.890625 -13.671875 10.046875 -13.671875 Z M 4.78125 19.25 L 3.25 19.1875 L 1.84375 18.8125 C 1.019531 18.488281 0.363281 18.125 -0.125 17.71875 C -0.207031 17.632812 -0.304688 17.539062 -0.421875 17.4375 C -0.546875 17.332031 -0.648438 17.222656 -0.734375 17.109375 C -0.984375 16.816406 -1.269531 16.46875 -1.59375 16.0625 C -1.757812 15.851562 -1.910156 15.601562 -2.046875 15.3125 C -2.191406 15.03125 -2.328125 14.707031 -2.453125 14.34375 C -2.492188 14.175781 -2.535156 13.988281 -2.578125 13.78125 C -2.617188 13.582031 -2.660156 13.378906 -2.703125 13.171875 C -2.742188 12.972656 -2.769531 12.738281 -2.78125 12.46875 C -2.800781 12.207031 -2.8125 11.929688 -2.8125 11.640625 C -2.8125 11.273438 -2.734375 10.765625 -2.578125 10.109375 C -2.328125 9.171875 -1.894531 8.171875 -1.28125 7.109375 C -0.957031 6.617188 -0.65625 6.191406 -0.375 5.828125 C -0.207031 5.660156 -0.0585938 5.484375 0.0625 5.296875 C 0.1875 5.117188 0.328125 4.945312 0.484375 4.78125 C 0.648438 4.613281 0.8125 4.425781 0.96875 4.21875 C 1.132812 4.019531 1.320312 3.800781 1.53125 3.5625 L 2.640625 2.390625 C 3.253906 1.773438 3.597656 1.40625 3.671875 1.28125 L 7.65625 -3.125 C 7.988281 -3.375 8.359375 -3.742188 8.765625 -4.234375 L 11.703125 -6.984375 L 13.546875 -8.453125 L 13.609375 -9.6875 C 13.316406 -9.5625 13.03125 -9.4375 12.75 -9.3125 C 12.46875 -9.195312 12.160156 -9.097656 11.828125 -9.015625 C 11.378906 -8.847656 10.726562 -8.765625 9.875 -8.765625 C 8.851562 -8.890625 8.195312 -9.015625 7.90625 -9.140625 C 7.738281 -9.210938 7.5625 -9.269531 7.375 -9.3125 C 7.195312 -9.351562 7.003906 -9.394531 6.796875 -9.4375 L 5.453125 -10.171875 C 5.367188 -10.253906 5.265625 -10.335938 5.140625 -10.421875 C 5.023438 -10.503906 4.90625 -10.585938 4.78125 -10.671875 C 4.65625 -10.742188 4.53125 -10.832031 4.40625 -10.9375 C 4.289062 -11.039062 4.191406 -11.132812 4.109375 -11.21875 C 4.023438 -11.300781 3.929688 -11.390625 3.828125 -11.484375 C 3.722656 -11.585938 3.632812 -11.679688 3.5625 -11.765625 C 3.476562 -11.847656 3.382812 -11.953125 3.28125 -12.078125 C 3.175781 -12.203125 3.082031 -12.300781 3 -12.375 C 2.914062 -12.457031 2.832031 -12.5625 2.75 -12.6875 C 2.675781 -12.8125 2.597656 -12.9375 2.515625 -13.0625 C 2.429688 -13.132812 2.347656 -13.234375 2.265625 -13.359375 C 2.179688 -13.484375 2.097656 -13.585938 2.015625 -13.671875 C 1.898438 -13.953125 1.78125 -14.222656 1.65625 -14.484375 C 1.53125 -14.753906 1.425781 -14.992188 1.34375 -15.203125 C 1.0625 -15.691406 0.898438 -16.117188 0.859375 -16.484375 L 0.796875 -16.671875 C 0.628906 -17.285156 0.546875 -17.816406 0.546875 -18.265625 C 0.546875 -18.753906 0.554688 -19.171875 0.578125 -19.515625 C 0.597656 -19.867188 0.628906 -20.144531 0.671875 -20.34375 C 0.710938 -20.675781 0.804688 -21.046875 0.953125 -21.453125 C 1.097656 -21.859375 1.269531 -22.269531 1.46875 -22.6875 C 1.957031 -23.75 2.570312 -24.546875 3.3125 -25.078125 C 4.082031 -25.804688 4.921875 -26.296875 5.828125 -26.546875 C 6.765625 -26.953125 7.785156 -27.15625 8.890625 -27.15625 C 10.765625 -27.15625 12.15625 -26.890625 13.0625 -26.359375 C 13.507812 -26.234375 13.832031 -26.085938 14.03125 -25.921875 C 14.519531 -26.660156 15.21875 -27.03125 16.125 -27.03125 C 16.613281 -27.03125 17.0625 -26.890625 17.46875 -26.609375 C 18.207031 -26.191406 18.578125 -25.351562 18.578125 -24.09375 C 18.660156 -23.757812 18.707031 -23.441406 18.71875 -23.140625 C 18.738281 -22.835938 18.769531 -22.539062 18.8125 -22.25 L 18.875 -21.703125 C 18.875 -19.734375 18.851562 -18.671875 18.8125 -18.515625 C 18.8125 -16.878906 18.8125 -15.585938 18.8125 -14.640625 C 18.8125 -13.703125 18.789062 -13.09375 18.75 -12.8125 L 18.75 -12.375 L 22.125 -14.71875 L 25.1875 -16.609375 C 25.601562 -16.898438 25.972656 -17.132812 26.296875 -17.3125 C 26.617188 -17.5 26.882812 -17.65625 27.09375 -17.78125 C 27.664062 -18.101562 28.175781 -18.394531 28.625 -18.65625 C 29.070312 -18.925781 29.460938 -19.144531 29.796875 -19.3125 C 30.078125 -19.394531 30.523438 -19.578125 31.140625 -19.859375 C 31.179688 -19.898438 31.285156 -19.960938 31.453125 -20.046875 C 31.484375 -20.085938 31.519531 -20.109375 31.5625 -20.109375 C 31.601562 -20.109375 31.644531 -20.128906 31.6875 -20.171875 C 31.9375 -20.285156 32.125 -20.34375 32.25 -20.34375 C 33.0625 -20.800781 33.753906 -21.03125 34.328125 -21.03125 C 34.859375 -21.03125 35.328125 -20.84375 35.734375 -20.46875 C 36.347656 -19.976562 36.65625 -19.367188 36.65625 -18.640625 L 36.65625 -18.203125 C 36.613281 -17.347656 36.0625 -16.695312 35 -16.25 C 34.675781 -16.125 34.410156 -16 34.203125 -15.875 L 34.015625 -15.8125 C 33.816406 -15.644531 33.632812 -15.5625 33.46875 -15.5625 C 33.300781 -15.53125 33.175781 -15.472656 33.09375 -15.390625 C 32.5625 -15.179688 32.15625 -14.992188 31.875 -14.828125 C 31.175781 -14.546875 30.5625 -14.222656 30.03125 -13.859375 L 29.359375 -13.421875 C 28.867188 -13.140625 28.445312 -12.894531 28.09375 -12.6875 C 27.75 -12.476562 27.476562 -12.296875 27.28125 -12.140625 C 27.238281 -12.140625 27.195312 -12.117188 27.15625 -12.078125 C 27.113281 -12.035156 27.070312 -12.015625 27.03125 -12.015625 C 26.988281 -12.015625 26.945312 -11.992188 26.90625 -11.953125 C 26.863281 -11.910156 26.820312 -11.878906 26.78125 -11.859375 C 26.738281 -11.835938 26.703125 -11.804688 26.671875 -11.765625 C 26.628906 -11.722656 26.585938 -11.691406 26.546875 -11.671875 C 26.503906 -11.648438 26.460938 -11.617188 26.421875 -11.578125 C 26.335938 -11.503906 26.273438 -11.46875 26.234375 -11.46875 C 26.191406 -11.425781 26.160156 -11.40625 26.140625 -11.40625 C 26.117188 -11.40625 26.085938 -11.382812 26.046875 -11.34375 C 26.003906 -11.300781 25.78125 -11.175781 25.375 -10.96875 L 23.53125 -9.75 C 23.332031 -9.625 23.023438 -9.40625 22.609375 -9.09375 C 22.203125 -8.789062 21.675781 -8.414062 21.03125 -7.96875 C 20.539062 -7.6875 20.109375 -7.378906 19.734375 -7.046875 L 18.390625 -6.0625 L 18.390625 -6 C 18.347656 -5.882812 18.316406 -5.765625 18.296875 -5.640625 C 18.273438 -5.515625 18.265625 -5.367188 18.265625 -5.203125 C 18.265625 -4.921875 18.203125 -4.410156 18.078125 -3.671875 C 18.078125 -3.472656 18.066406 -3.269531 18.046875 -3.0625 C 18.023438 -2.863281 17.992188 -2.679688 17.953125 -2.515625 L 17.953125 -2.203125 C 17.953125 -1.921875 17.929688 -1.601562 17.890625 -1.25 C 17.859375 -0.90625 17.800781 -0.550781 17.71875 -0.1875 L 17.15625 2.578125 C 17.125 2.859375 17.085938 3.09375 17.046875 3.28125 C 17.003906 3.46875 16.960938 3.597656 16.921875 3.671875 C 16.921875 3.960938 16.796875 4.457031 16.546875 5.15625 C 16.546875 5.351562 16.46875 5.675781 16.3125 6.125 L 16.125 6.6875 C 16.082031 6.96875 15.988281 7.3125 15.84375 7.71875 C 15.695312 8.132812 15.523438 8.625 15.328125 9.1875 L 15.140625 9.625 C 14.972656 10.070312 14.796875 10.539062 14.609375 11.03125 C 14.429688 11.519531 14.203125 12.007812 13.921875 12.5 C 13.753906 12.75 13.585938 13.015625 13.421875 13.296875 C 13.253906 13.585938 13.070312 13.894531 12.875 14.21875 C 12.664062 14.550781 12.445312 14.867188 12.21875 15.171875 C 12 15.472656 11.75 15.789062 11.46875 16.125 C 10.894531 16.738281 10.238281 17.269531 9.5 17.71875 L 8.953125 18.078125 C 8.171875 18.523438 7.1875 18.875 6 19.125 C 5.84375 19.125 5.660156 19.132812 5.453125 19.15625 C 5.253906 19.175781 5.03125 19.207031 4.78125 19.25 Z M 4.78125 19.25 "/></g></g></g><g fill="#fdffee" fill-opacity="1"><g transform="translate(71.10977, 57.249806)"><g><path d="M 8.953125 -14.09375 C 9.078125 -14.132812 9.21875 -14.195312 9.375 -14.28125 C 9.457031 -14.28125 9.582031 -14.320312 9.75 -14.40625 C 9.789062 -14.445312 9.890625 -14.507812 10.046875 -14.59375 C 10.128906 -14.632812 10.222656 -14.679688 10.328125 -14.734375 C 10.429688 -14.796875 10.566406 -14.890625 10.734375 -15.015625 C 11.054688 -15.222656 11.421875 -15.65625 11.828125 -16.3125 C 11.910156 -16.425781 11.984375 -16.546875 12.046875 -16.671875 C 12.109375 -16.796875 12.160156 -16.898438 12.203125 -16.984375 C 12.285156 -17.222656 12.34375 -17.425781 12.375 -17.59375 C 12.625 -18.570312 12.75 -19.207031 12.75 -19.5 C 12.75 -19.65625 12.769531 -19.796875 12.8125 -19.921875 C 12.8125 -20.003906 12.8125 -20.132812 12.8125 -20.3125 C 12.8125 -20.5 12.8125 -20.738281 12.8125 -21.03125 C 12.8125 -21.226562 12.8125 -21.367188 12.8125 -21.453125 C 12.8125 -21.535156 12.8125 -21.597656 12.8125 -21.640625 C 12.769531 -21.640625 12.726562 -21.660156 12.6875 -21.703125 C 12.644531 -21.742188 12.625 -21.765625 12.625 -21.765625 C 12.625 -21.765625 12.601562 -21.785156 12.5625 -21.828125 C 12.476562 -21.898438 12.4375 -21.957031 12.4375 -22 C 12.394531 -22.039062 12.363281 -22.070312 12.34375 -22.09375 C 12.332031 -22.113281 12.304688 -22.144531 12.265625 -22.1875 C 12.179688 -22.226562 12.054688 -22.25 11.890625 -22.25 C 11.804688 -22.332031 11.664062 -22.375 11.46875 -22.375 C 11.425781 -22.5 11.21875 -22.5625 10.84375 -22.5625 C 10.800781 -22.601562 10.535156 -22.625 10.046875 -22.625 C 9.890625 -22.625 9.71875 -22.613281 9.53125 -22.59375 C 9.34375 -22.570312 9.148438 -22.539062 8.953125 -22.5 C 8.335938 -22.5 7.539062 -22.007812 6.5625 -21.03125 C 6.3125 -20.695312 6.125 -20.367188 6 -20.046875 C 5.96875 -20.003906 5.953125 -19.960938 5.953125 -19.921875 C 5.953125 -19.878906 5.929688 -19.835938 5.890625 -19.796875 C 5.847656 -19.753906 5.828125 -19.65625 5.828125 -19.5 C 5.785156 -19.457031 5.765625 -19.394531 5.765625 -19.3125 C 5.765625 -19.226562 5.742188 -19.144531 5.703125 -19.0625 C 5.660156 -18.976562 5.640625 -18.875 5.640625 -18.75 C 5.640625 -18.632812 5.617188 -18.535156 5.578125 -18.453125 C 5.535156 -18.328125 5.515625 -17.976562 5.515625 -17.40625 C 5.597656 -17.164062 5.640625 -16.898438 5.640625 -16.609375 C 5.640625 -16.523438 5.660156 -16.441406 5.703125 -16.359375 C 5.785156 -16.203125 5.847656 -16.0625 5.890625 -15.9375 C 5.960938 -15.769531 6.019531 -15.644531 6.0625 -15.5625 C 6.144531 -15.40625 6.207031 -15.304688 6.25 -15.265625 C 6.289062 -15.179688 6.351562 -15.097656 6.4375 -15.015625 C 6.476562 -14.972656 6.507812 -14.929688 6.53125 -14.890625 C 6.550781 -14.847656 6.582031 -14.804688 6.625 -14.765625 C 6.664062 -14.734375 6.710938 -14.695312 6.765625 -14.65625 C 6.828125 -14.613281 6.878906 -14.550781 6.921875 -14.46875 C 7.046875 -14.46875 7.191406 -14.40625 7.359375 -14.28125 C 7.640625 -14.28125 7.925781 -14.21875 8.21875 -14.09375 Z M 23.359375 -8.703125 L 22 -8.703125 C 21.925781 -8.742188 21.828125 -8.765625 21.703125 -8.765625 C 21.578125 -8.765625 21.453125 -8.785156 21.328125 -8.828125 C 21.003906 -8.910156 20.78125 -8.972656 20.65625 -9.015625 C 20.570312 -9.054688 20.46875 -9.09375 20.34375 -9.125 C 20.226562 -9.164062 20.128906 -9.207031 20.046875 -9.25 C 19.921875 -9.289062 19.796875 -9.332031 19.671875 -9.375 C 19.554688 -9.414062 19.457031 -9.457031 19.375 -9.5 C 18.957031 -9.707031 18.523438 -9.992188 18.078125 -10.359375 C 17.878906 -10.523438 17.6875 -10.675781 17.5 -10.8125 C 17.3125 -10.957031 17.117188 -11.113281 16.921875 -11.28125 C 16.515625 -11.601562 16.226562 -11.910156 16.0625 -12.203125 C 15.976562 -12.359375 15.875 -12.5 15.75 -12.625 C 15.625 -12.75 15.523438 -12.851562 15.453125 -12.9375 L 14.890625 -12.265625 C 14.609375 -11.972656 14.34375 -11.703125 14.09375 -11.453125 C 13.851562 -11.210938 13.585938 -10.988281 13.296875 -10.78125 L 12.203125 -10.109375 C 11.710938 -9.910156 11.25 -9.738281 10.8125 -9.59375 C 10.382812 -9.445312 9.96875 -9.332031 9.5625 -9.25 L 8.21875 -9.1875 C 7.394531 -9.1875 6.640625 -9.332031 5.953125 -9.625 C 4.847656 -10.070312 4.109375 -10.457031 3.734375 -10.78125 L 3 -11.34375 L 1.96875 -12.6875 L 1.59375 -13.421875 C 1.226562 -14.203125 0.984375 -14.898438 0.859375 -15.515625 L 0.609375 -17.15625 L 0.671875 -18.640625 C 0.710938 -18.960938 0.753906 -19.242188 0.796875 -19.484375 C 0.835938 -19.734375 0.878906 -19.960938 0.921875 -20.171875 C 0.960938 -20.492188 1.0625 -20.835938 1.21875 -21.203125 L 1.34375 -21.578125 L 1.96875 -22.984375 L 2.875 -24.28125 C 3.332031 -24.769531 3.753906 -25.164062 4.140625 -25.46875 C 4.523438 -25.769531 4.863281 -26.003906 5.15625 -26.171875 C 6.332031 -26.867188 7.269531 -27.238281 7.96875 -27.28125 L 8.28125 -27.34375 C 8.726562 -27.457031 9.070312 -27.515625 9.3125 -27.515625 L 10.671875 -27.515625 C 11.203125 -27.515625 11.609375 -27.457031 11.890625 -27.34375 C 12.421875 -27.257812 12.769531 -27.175781 12.9375 -27.09375 C 13.46875 -26.96875 13.8125 -26.828125 13.96875 -26.671875 C 14.382812 -26.546875 14.734375 -26.398438 15.015625 -26.234375 C 15.347656 -26.066406 15.59375 -25.882812 15.75 -25.6875 C 15.832031 -25.601562 15.894531 -25.53125 15.9375 -25.46875 C 15.976562 -25.40625 16.019531 -25.351562 16.0625 -25.3125 C 16.101562 -25.269531 16.132812 -25.238281 16.15625 -25.21875 C 16.175781 -25.195312 16.207031 -25.164062 16.25 -25.125 C 16.320312 -25.050781 16.359375 -24.972656 16.359375 -24.890625 C 16.972656 -24.359375 17.28125 -23.722656 17.28125 -22.984375 C 17.570312 -22.660156 17.71875 -22.128906 17.71875 -21.390625 C 17.84375 -21.222656 17.90625 -21.019531 17.90625 -20.78125 C 18.019531 -20.488281 18.078125 -20.265625 18.078125 -20.109375 C 18.078125 -19.984375 18.097656 -19.898438 18.140625 -19.859375 C 18.140625 -19.734375 18.160156 -19.628906 18.203125 -19.546875 C 18.203125 -19.429688 18.222656 -19.351562 18.265625 -19.3125 C 18.265625 -19.269531 18.265625 -19.238281 18.265625 -19.21875 C 18.265625 -19.195312 18.265625 -19.164062 18.265625 -19.125 L 18.640625 -17.46875 L 19.1875 -16.3125 C 19.226562 -16.226562 19.269531 -16.15625 19.3125 -16.09375 C 19.351562 -16.03125 19.394531 -15.957031 19.4375 -15.875 C 19.476562 -15.789062 19.78125 -15.40625 20.34375 -14.71875 C 20.46875 -14.59375 20.59375 -14.488281 20.71875 -14.40625 C 20.882812 -14.238281 21.023438 -14.132812 21.140625 -14.09375 C 21.265625 -14.050781 21.410156 -13.992188 21.578125 -13.921875 C 21.660156 -13.878906 21.738281 -13.847656 21.8125 -13.828125 C 21.894531 -13.804688 22 -13.753906 22.125 -13.671875 L 22.859375 -13.609375 C 23.234375 -13.609375 23.441406 -13.628906 23.484375 -13.671875 L 23.53125 -13.671875 C 24.03125 -13.796875 24.707031 -14.160156 25.5625 -14.765625 C 25.726562 -14.847656 25.898438 -14.984375 26.078125 -15.171875 C 26.265625 -15.359375 26.460938 -15.550781 26.671875 -15.75 C 26.785156 -15.875 26.894531 -15.988281 27 -16.09375 C 27.101562 -16.195312 27.175781 -16.269531 27.21875 -16.3125 C 27.257812 -16.382812 27.378906 -16.523438 27.578125 -16.734375 C 27.660156 -16.816406 27.734375 -16.898438 27.796875 -16.984375 C 27.859375 -17.066406 27.910156 -17.144531 27.953125 -17.21875 C 27.992188 -17.300781 28.035156 -17.351562 28.078125 -17.375 C 28.117188 -17.394531 28.160156 -17.425781 28.203125 -17.46875 C 28.242188 -17.46875 28.445312 -17.734375 28.8125 -18.265625 C 29.007812 -18.472656 29.191406 -18.738281 29.359375 -19.0625 L 29.484375 -19.1875 C 29.609375 -19.3125 29.726562 -19.441406 29.84375 -19.578125 C 29.96875 -19.722656 30.09375 -19.878906 30.21875 -20.046875 C 30.34375 -20.210938 30.484375 -20.375 30.640625 -20.53125 C 30.804688 -20.695312 30.972656 -20.863281 31.140625 -21.03125 C 31.304688 -21.144531 31.390625 -21.242188 31.390625 -21.328125 C 32.078125 -21.941406 32.75 -22.25 33.40625 -22.25 C 33.8125 -22.25 34.140625 -22.128906 34.390625 -21.890625 C 34.835938 -21.640625 35.179688 -21.351562 35.421875 -21.03125 C 35.671875 -20.65625 35.796875 -20.265625 35.796875 -19.859375 C 35.796875 -19.117188 35.507812 -18.46875 34.9375 -17.90625 C 34.769531 -17.738281 34.601562 -17.570312 34.4375 -17.40625 C 34.28125 -17.238281 34.160156 -17.078125 34.078125 -16.921875 C 33.953125 -16.753906 33.835938 -16.617188 33.734375 -16.515625 C 33.640625 -16.410156 33.550781 -16.320312 33.46875 -16.25 C 33.382812 -16.164062 33.289062 -16.0625 33.1875 -15.9375 C 33.082031 -15.8125 32.992188 -15.6875 32.921875 -15.5625 L 32.671875 -15.265625 C 32.265625 -14.734375 32.019531 -14.425781 31.9375 -14.34375 C 31.894531 -14.300781 31.832031 -14.226562 31.75 -14.125 C 31.664062 -14.019531 31.582031 -13.910156 31.5 -13.796875 C 31.175781 -13.347656 30.894531 -13.019531 30.65625 -12.8125 L 28.8125 -11.09375 L 27.890625 -10.359375 C 27.359375 -9.992188 26.6875 -9.625 25.875 -9.25 C 25.707031 -9.207031 25.519531 -9.15625 25.3125 -9.09375 C 25.113281 -9.039062 24.910156 -8.972656 24.703125 -8.890625 C 24.296875 -8.765625 23.847656 -8.703125 23.359375 -8.703125 Z M 23.359375 -8.703125 "/></g></g></g><g fill="#fdffee" fill-opacity="1"><g transform="translate(101.943109, 57.249806)"><g><path d="M 22 -5.515625 C 20.738281 -5.515625 19.695312 -5.695312 18.875 -6.0625 C 18.101562 -6.351562 17.390625 -6.863281 16.734375 -7.59375 L 16.1875 -8.15625 C 15.9375 -8.476562 15.71875 -8.800781 15.53125 -9.125 C 15.351562 -9.457031 15.203125 -9.765625 15.078125 -10.046875 C 14.867188 -10.535156 14.664062 -11.128906 14.46875 -11.828125 L 14.28125 -12.5 L 14.03125 -13.796875 C 13.988281 -14.078125 13.957031 -14.328125 13.9375 -14.546875 C 13.925781 -14.773438 13.878906 -14.972656 13.796875 -15.140625 C 13.710938 -15.671875 13.628906 -16.0625 13.546875 -16.3125 C 13.460938 -16.800781 13.398438 -17.125 13.359375 -17.28125 C 13.273438 -17.53125 13.234375 -17.65625 13.234375 -17.65625 L 13 -18.328125 C 12.75 -18.941406 12.503906 -19.453125 12.265625 -19.859375 L 12.203125 -19.921875 C 12.078125 -20.171875 11.910156 -20.394531 11.703125 -20.59375 C 11.585938 -20.84375 11.40625 -21.085938 11.15625 -21.328125 C 10.832031 -21.578125 10.503906 -21.765625 10.171875 -21.890625 C 9.640625 -22.128906 9.171875 -22.25 8.765625 -22.25 C 8.679688 -22.25 8.617188 -22.269531 8.578125 -22.3125 C 8.492188 -22.351562 8.25 -22.375 7.84375 -22.375 C 7.4375 -22.375 7.191406 -22.351562 7.109375 -22.3125 C 6.984375 -22.269531 6.84375 -22.207031 6.6875 -22.125 C 6.519531 -22.082031 6.394531 -22.019531 6.3125 -21.9375 C 6.269531 -21.90625 6.238281 -21.878906 6.21875 -21.859375 C 6.195312 -21.835938 6.164062 -21.804688 6.125 -21.765625 C 6.082031 -21.722656 6.0625 -21.691406 6.0625 -21.671875 C 6.0625 -21.648438 6.039062 -21.617188 6 -21.578125 C 5.96875 -21.535156 5.953125 -21.503906 5.953125 -21.484375 C 5.953125 -21.460938 5.953125 -21.453125 5.953125 -21.453125 C 5.910156 -21.410156 5.890625 -21.367188 5.890625 -21.328125 L 5.828125 -20.90625 C 5.828125 -20.53125 5.847656 -20.285156 5.890625 -20.171875 C 5.890625 -20.085938 5.890625 -19.992188 5.890625 -19.890625 C 5.890625 -19.785156 5.890625 -19.691406 5.890625 -19.609375 C 5.890625 -19.535156 5.890625 -19.4375 5.890625 -19.3125 C 5.890625 -19.1875 5.910156 -19.082031 5.953125 -19 C 5.953125 -18.914062 5.953125 -18.703125 5.953125 -18.359375 C 5.953125 -18.015625 5.953125 -17.554688 5.953125 -16.984375 C 5.984375 -16.816406 6 -16.507812 6 -16.0625 C 6 -15.613281 6 -15.039062 6 -14.34375 C 6.039062 -14.175781 6.0625 -13.929688 6.0625 -13.609375 C 6.0625 -13.285156 6.0625 -12.875 6.0625 -12.375 L 6.125 -10.96875 C 6.125 -10.113281 5.78125 -9.441406 5.09375 -8.953125 C 4.675781 -8.660156 4.203125 -8.515625 3.671875 -8.515625 C 3.347656 -8.515625 3.023438 -8.578125 2.703125 -8.703125 C 1.835938 -9.066406 1.34375 -9.800781 1.21875 -10.90625 C 1.21875 -10.988281 1.21875 -11.070312 1.21875 -11.15625 C 1.21875 -11.238281 1.21875 -11.300781 1.21875 -11.34375 C 1.1875 -11.382812 1.171875 -11.691406 1.171875 -12.265625 C 1.171875 -12.796875 1.171875 -13.210938 1.171875 -13.515625 C 1.171875 -13.816406 1.148438 -14.050781 1.109375 -14.21875 C 1.109375 -14.914062 1.109375 -15.488281 1.109375 -15.9375 C 1.109375 -16.382812 1.085938 -16.691406 1.046875 -16.859375 C 1.046875 -17.429688 1.046875 -17.878906 1.046875 -18.203125 C 1.046875 -18.535156 1.046875 -18.738281 1.046875 -18.8125 C 1.003906 -18.894531 0.984375 -18.976562 0.984375 -19.0625 C 0.984375 -19.144531 0.984375 -19.207031 0.984375 -19.25 C 0.984375 -19.570312 0.984375 -19.851562 0.984375 -20.09375 C 0.984375 -20.34375 0.960938 -20.550781 0.921875 -20.71875 C 0.878906 -20.800781 0.859375 -20.984375 0.859375 -21.265625 C 0.859375 -21.554688 0.859375 -21.78125 0.859375 -21.9375 C 0.859375 -22.101562 0.859375 -22.226562 0.859375 -22.3125 C 0.816406 -22.394531 0.796875 -22.679688 0.796875 -23.171875 C 0.796875 -23.378906 0.796875 -23.550781 0.796875 -23.6875 C 0.796875 -23.832031 0.796875 -23.925781 0.796875 -23.96875 C 0.753906 -24.050781 0.734375 -24.296875 0.734375 -24.703125 C 0.734375 -25.066406 0.710938 -25.3125 0.671875 -25.4375 C 0.628906 -25.519531 0.609375 -25.679688 0.609375 -25.921875 C 0.609375 -26.578125 0.796875 -27.109375 1.171875 -27.515625 C 1.734375 -28.085938 2.363281 -28.375 3.0625 -28.375 C 4.164062 -28.375 4.921875 -27.863281 5.328125 -26.84375 L 5.453125 -26.90625 C 6.148438 -27.15625 7.070312 -27.28125 8.21875 -27.28125 C 8.832031 -27.28125 9.503906 -27.175781 10.234375 -26.96875 L 10.734375 -26.84375 C 10.929688 -26.800781 11.140625 -26.757812 11.359375 -26.71875 C 11.585938 -26.6875 11.804688 -26.628906 12.015625 -26.546875 C 12.421875 -26.378906 12.890625 -26.09375 13.421875 -25.6875 C 13.785156 -25.519531 14.15625 -25.210938 14.53125 -24.765625 C 14.8125 -24.554688 15.140625 -24.207031 15.515625 -23.71875 C 15.796875 -23.519531 16.0625 -23.15625 16.3125 -22.625 C 16.507812 -22.375 16.691406 -22.066406 16.859375 -21.703125 L 16.984375 -21.390625 C 17.222656 -21.023438 17.40625 -20.597656 17.53125 -20.109375 C 17.695312 -19.816406 17.828125 -19.488281 17.921875 -19.125 C 18.023438 -18.757812 18.117188 -18.351562 18.203125 -17.90625 C 18.242188 -17.820312 18.273438 -17.726562 18.296875 -17.625 C 18.316406 -17.519531 18.347656 -17.425781 18.390625 -17.34375 C 18.429688 -17.257812 18.453125 -17.15625 18.453125 -17.03125 C 18.453125 -16.914062 18.472656 -16.796875 18.515625 -16.671875 C 18.554688 -16.546875 18.578125 -16.429688 18.578125 -16.328125 C 18.578125 -16.234375 18.597656 -16.144531 18.640625 -16.0625 C 18.710938 -15.851562 18.832031 -15.21875 19 -14.15625 C 19 -13.914062 19.019531 -13.753906 19.0625 -13.671875 C 19.0625 -13.503906 19.082031 -13.398438 19.125 -13.359375 C 19.164062 -12.953125 19.304688 -12.566406 19.546875 -12.203125 C 19.628906 -12.035156 19.710938 -11.890625 19.796875 -11.765625 C 19.835938 -11.679688 19.890625 -11.585938 19.953125 -11.484375 C 20.015625 -11.390625 20.066406 -11.257812 20.109375 -11.09375 C 20.148438 -11.09375 20.210938 -11.050781 20.296875 -10.96875 C 20.296875 -10.882812 20.332031 -10.84375 20.40625 -10.84375 C 20.445312 -10.800781 20.46875 -10.78125 20.46875 -10.78125 C 20.46875 -10.78125 20.488281 -10.765625 20.53125 -10.734375 C 20.613281 -10.648438 20.695312 -10.585938 20.78125 -10.546875 C 20.863281 -10.503906 20.96875 -10.484375 21.09375 -10.484375 C 21.125 -10.441406 21.265625 -10.421875 21.515625 -10.421875 C 21.878906 -10.421875 22.101562 -10.441406 22.1875 -10.484375 C 22.269531 -10.523438 22.332031 -10.546875 22.375 -10.546875 C 22.414062 -10.546875 22.457031 -10.566406 22.5 -10.609375 C 22.988281 -10.648438 23.722656 -10.9375 24.703125 -11.46875 L 25.625 -12.140625 C 26.28125 -12.710938 26.6875 -13.140625 26.84375 -13.421875 L 27.828125 -14.59375 C 28.191406 -14.914062 28.601562 -15.488281 29.0625 -16.3125 L 29.734375 -17.28125 C 29.816406 -17.363281 29.925781 -17.546875 30.0625 -17.828125 C 30.207031 -18.117188 30.382812 -18.46875 30.59375 -18.875 L 30.890625 -19.5 C 31.378906 -20.757812 32.15625 -21.390625 33.21875 -21.390625 L 33.40625 -21.390625 C 34.34375 -21.390625 35.015625 -21.023438 35.421875 -20.296875 C 35.710938 -19.960938 35.859375 -19.550781 35.859375 -19.0625 C 35.859375 -18.65625 35.734375 -18.207031 35.484375 -17.71875 C 35.441406 -17.675781 35.421875 -17.625 35.421875 -17.5625 C 35.421875 -17.5 35.40625 -17.445312 35.375 -17.40625 C 35.289062 -17.238281 35.25 -17.15625 35.25 -17.15625 C 35.207031 -17.125 35.15625 -17.054688 35.09375 -16.953125 C 35.03125 -16.847656 34.957031 -16.710938 34.875 -16.546875 L 34.75 -16.3125 C 34.46875 -15.65625 34.160156 -15.101562 33.828125 -14.65625 C 33.753906 -14.53125 33.6875 -14.40625 33.625 -14.28125 C 33.5625 -14.15625 33.488281 -14.035156 33.40625 -13.921875 C 33.320312 -13.753906 33.238281 -13.609375 33.15625 -13.484375 C 33.070312 -13.359375 32.992188 -13.253906 32.921875 -13.171875 C 32.835938 -13.054688 32.753906 -12.9375 32.671875 -12.8125 C 32.585938 -12.6875 32.503906 -12.582031 32.421875 -12.5 C 32.335938 -12.382812 32.253906 -12.273438 32.171875 -12.171875 C 32.097656 -12.066406 32.019531 -11.972656 31.9375 -11.890625 C 31.40625 -11.234375 31.035156 -10.742188 30.828125 -10.421875 C 30.710938 -10.253906 30.613281 -10.128906 30.53125 -10.046875 C 30.445312 -9.972656 30.382812 -9.914062 30.34375 -9.875 C 30.257812 -9.832031 30.175781 -9.769531 30.09375 -9.6875 C 29.9375 -9.519531 29.785156 -9.351562 29.640625 -9.1875 C 29.492188 -9.03125 29.335938 -8.867188 29.171875 -8.703125 C 28.523438 -8.171875 28.035156 -7.800781 27.703125 -7.59375 C 27.171875 -7.269531 26.691406 -6.984375 26.265625 -6.734375 C 25.835938 -6.492188 25.441406 -6.3125 25.078125 -6.1875 L 23.53125 -5.765625 C 22.882812 -5.597656 22.375 -5.515625 22 -5.515625 Z M 22 -5.515625 "/></g></g></g><g fill="#fdffee" fill-opacity="1"><g transform="translate(132.83776, 57.249806)"><g><path d="M 10.546875 -7.96875 L 9.3125 -8.15625 L 8.890625 -8.28125 C 8.359375 -8.394531 7.96875 -8.515625 7.71875 -8.640625 C 7.5625 -8.722656 7.421875 -8.785156 7.296875 -8.828125 C 7.171875 -8.867188 7.066406 -8.910156 6.984375 -8.953125 C 6.253906 -9.359375 5.582031 -9.828125 4.96875 -10.359375 L 4.53125 -10.734375 C 4.375 -10.929688 4.222656 -11.113281 4.078125 -11.28125 C 3.929688 -11.445312 3.816406 -11.609375 3.734375 -11.765625 C 3.453125 -12.054688 3.289062 -12.300781 3.25 -12.5 L 2.703125 -13.421875 C 2.492188 -13.953125 2.285156 -14.398438 2.078125 -14.765625 C 1.960938 -15.179688 1.800781 -15.65625 1.59375 -16.1875 L 0.984375 -19 C 0.941406 -19.25 0.910156 -19.472656 0.890625 -19.671875 C 0.867188 -19.878906 0.859375 -20.066406 0.859375 -20.234375 C 0.859375 -20.390625 0.859375 -20.53125 0.859375 -20.65625 C 0.859375 -20.78125 0.859375 -20.882812 0.859375 -20.96875 C 0.816406 -21.082031 0.796875 -22.550781 0.796875 -25.375 C 0.796875 -26.269531 1.0625 -26.925781 1.59375 -27.34375 C 2.125 -27.789062 2.675781 -28.015625 3.25 -28.015625 C 3.90625 -28.015625 4.5 -27.789062 5.03125 -27.34375 C 5.476562 -26.894531 5.703125 -26.238281 5.703125 -25.375 C 5.703125 -22.632812 5.722656 -21.222656 5.765625 -21.140625 C 5.765625 -21.066406 5.765625 -20.988281 5.765625 -20.90625 C 5.765625 -20.820312 5.765625 -20.738281 5.765625 -20.65625 C 5.765625 -20.445312 5.785156 -20.304688 5.828125 -20.234375 C 5.828125 -19.984375 5.847656 -19.773438 5.890625 -19.609375 C 5.929688 -19.492188 5.953125 -19.351562 5.953125 -19.1875 C 5.953125 -19.019531 5.96875 -18.835938 6 -18.640625 L 6.0625 -18.390625 C 6.144531 -18.140625 6.21875 -17.910156 6.28125 -17.703125 C 6.34375 -17.503906 6.414062 -17.304688 6.5 -17.109375 L 7.109375 -15.515625 C 7.191406 -15.429688 7.253906 -15.347656 7.296875 -15.265625 C 7.378906 -15.097656 7.5 -14.929688 7.65625 -14.765625 C 7.78125 -14.484375 8.023438 -14.203125 8.390625 -13.921875 C 8.515625 -13.835938 8.660156 -13.753906 8.828125 -13.671875 C 8.910156 -13.628906 8.988281 -13.578125 9.0625 -13.515625 C 9.144531 -13.453125 9.207031 -13.398438 9.25 -13.359375 C 9.332031 -13.316406 9.5 -13.253906 9.75 -13.171875 C 9.832031 -13.140625 9.929688 -13.113281 10.046875 -13.09375 C 10.171875 -13.070312 10.273438 -13.019531 10.359375 -12.9375 L 11.15625 -12.875 C 11.28125 -12.914062 11.398438 -12.957031 11.515625 -13 C 11.640625 -13.039062 11.742188 -13.082031 11.828125 -13.125 C 11.953125 -13.15625 12.078125 -13.234375 12.203125 -13.359375 C 12.359375 -13.441406 12.488281 -13.535156 12.59375 -13.640625 C 12.695312 -13.742188 12.789062 -13.835938 12.875 -13.921875 L 13 -14.03125 C 13.28125 -14.238281 13.566406 -14.546875 13.859375 -14.953125 L 14.890625 -16.359375 C 15.015625 -16.566406 15.140625 -16.742188 15.265625 -16.890625 C 15.390625 -17.035156 15.488281 -17.1875 15.5625 -17.34375 C 15.644531 -17.507812 15.726562 -17.644531 15.8125 -17.75 C 15.894531 -17.851562 15.957031 -17.941406 16 -18.015625 C 16.039062 -18.140625 16.101562 -18.285156 16.1875 -18.453125 C 16.269531 -18.617188 16.347656 -18.757812 16.421875 -18.875 C 16.503906 -19 16.566406 -19.101562 16.609375 -19.1875 C 16.648438 -19.3125 16.753906 -19.492188 16.921875 -19.734375 C 16.960938 -19.816406 17.019531 -19.9375 17.09375 -20.09375 C 17.175781 -20.257812 17.257812 -20.425781 17.34375 -20.59375 C 17.425781 -20.757812 17.546875 -20.972656 17.703125 -21.234375 C 17.867188 -21.503906 18.054688 -21.820312 18.265625 -22.1875 L 18.703125 -22.859375 C 19.265625 -23.679688 20 -24.09375 20.90625 -24.09375 C 21.226562 -24.09375 21.472656 -24.03125 21.640625 -23.90625 C 22.742188 -23.5 23.296875 -22.765625 23.296875 -21.703125 C 23.296875 -21.046875 22.96875 -20.269531 22.3125 -19.375 C 22.101562 -19.082031 21.859375 -18.671875 21.578125 -18.140625 L 21.03125 -17.109375 C 20.988281 -16.941406 20.914062 -16.765625 20.8125 -16.578125 C 20.707031 -16.398438 20.613281 -16.207031 20.53125 -16 C 20.40625 -15.832031 20.300781 -15.664062 20.21875 -15.5 C 20.144531 -15.34375 20.066406 -15.222656 19.984375 -15.140625 L 19.859375 -15.015625 C 19.691406 -14.566406 19.320312 -13.992188 18.75 -13.296875 C 18.46875 -12.972656 18.253906 -12.707031 18.109375 -12.5 C 17.972656 -12.300781 17.882812 -12.179688 17.84375 -12.140625 C 17.757812 -11.972656 17.695312 -11.867188 17.65625 -11.828125 C 16.914062 -10.929688 16.160156 -10.175781 15.390625 -9.5625 C 14.609375 -8.945312 13.890625 -8.554688 13.234375 -8.390625 L 13.0625 -8.34375 C 12.320312 -8.09375 11.484375 -7.96875 10.546875 -7.96875 Z M 3.4375 -29.859375 C 2.90625 -29.859375 2.414062 -29.9375 1.96875 -30.09375 C 1.0625 -30.382812 0.609375 -31.082031 0.609375 -32.1875 L 0.734375 -33.71875 C 1.097656 -35.0625 1.914062 -35.734375 3.1875 -35.734375 C 3.925781 -35.734375 4.539062 -35.445312 5.03125 -34.875 C 5.4375 -34.46875 5.640625 -33.9375 5.640625 -33.28125 L 5.515625 -32.25 C 5.515625 -31.632812 5.25 -31.0625 4.71875 -30.53125 C 4.3125 -30.113281 3.882812 -29.890625 3.4375 -29.859375 Z M 3.4375 -29.859375 "/></g></g></g><g clip-path="url(#45111300e1)"><g fill="#fdffee" fill-opacity="1"><g transform="translate(151.227423, 57.249806)"><g><path d="M 12.4375 -25.078125 C 12.644531 -24.953125 12.859375 -24.847656 13.078125 -24.765625 C 13.304688 -24.679688 13.546875 -24.640625 13.796875 -24.640625 C 14.203125 -24.640625 14.566406 -24.742188 14.890625 -24.953125 C 15.796875 -25.484375 16.25 -26.15625 16.25 -26.96875 C 16.25 -27.789062 15.960938 -28.445312 15.390625 -28.9375 C 15.179688 -29.21875 14.851562 -29.441406 14.40625 -29.609375 C 14.28125 -29.691406 13.992188 -29.773438 13.546875 -29.859375 C 13.378906 -29.929688 13.03125 -30.007812 12.5 -30.09375 L 11.34375 -30.09375 C 10.96875 -30.09375 10.597656 -30.070312 10.234375 -30.03125 C 9.867188 -29.988281 9.519531 -29.929688 9.1875 -29.859375 L 8.828125 -29.734375 C 8.421875 -29.648438 8.007812 -29.523438 7.59375 -29.359375 C 6.738281 -29.078125 5.882812 -28.609375 5.03125 -27.953125 L 4.78125 -27.703125 C 4 -27.046875 3.222656 -26.171875 2.453125 -25.078125 C 2.160156 -24.660156 1.851562 -24.109375 1.53125 -23.421875 C 1 -22.316406 0.710938 -21.085938 0.671875 -19.734375 L 0.609375 -18.875 C 0.609375 -17.570312 0.957031 -16.125 1.65625 -14.53125 C 1.738281 -14.445312 1.828125 -14.332031 1.921875 -14.1875 C 2.023438 -14.039062 2.117188 -13.890625 2.203125 -13.734375 C 2.285156 -13.566406 2.398438 -13.378906 2.546875 -13.171875 C 2.691406 -12.972656 2.84375 -12.75 3 -12.5 L 3.375 -12.015625 C 3.78125 -11.609375 4.175781 -11.238281 4.5625 -10.90625 C 4.957031 -10.582031 5.316406 -10.273438 5.640625 -9.984375 L 6.859375 -9.3125 L 7.171875 -9.1875 C 7.984375 -8.90625 8.78125 -8.722656 9.5625 -8.640625 L 10.78125 -8.578125 C 11.03125 -8.578125 11.273438 -8.578125 11.515625 -8.578125 C 11.765625 -8.578125 11.992188 -8.597656 12.203125 -8.640625 L 12.9375 -8.828125 C 13.507812 -8.910156 14.140625 -9.132812 14.828125 -9.5 L 15.140625 -9.625 L 17.046875 -10.84375 C 17.203125 -11.007812 17.363281 -11.171875 17.53125 -11.328125 C 17.695312 -11.492188 17.878906 -11.660156 18.078125 -11.828125 C 18.203125 -11.953125 18.328125 -12.054688 18.453125 -12.140625 C 18.578125 -12.265625 18.660156 -12.328125 18.703125 -12.328125 C 18.734375 -12.328125 18.894531 -12.46875 19.1875 -12.75 C 19.550781 -13.070312 19.882812 -13.40625 20.1875 -13.75 C 20.5 -14.101562 20.78125 -14.425781 21.03125 -14.71875 L 21.203125 -14.890625 L 23.421875 -17.40625 C 23.578125 -17.695312 24.164062 -18.25 25.1875 -19.0625 C 25.269531 -19.144531 25.4375 -19.269531 25.6875 -19.4375 C 25.925781 -19.59375 26.109375 -19.734375 26.234375 -19.859375 C 26.484375 -20.023438 26.769531 -20.1875 27.09375 -20.34375 L 27.640625 -20.71875 C 28.546875 -21.25 29 -21.960938 29 -22.859375 C 29 -23.597656 28.691406 -24.234375 28.078125 -24.765625 C 27.785156 -25.171875 27.351562 -25.375 26.78125 -25.375 L 26.546875 -25.375 C 25.765625 -25.375 24.597656 -24.78125 23.046875 -23.59375 L 22.375 -23.046875 C 22.082031 -22.835938 21.765625 -22.59375 21.421875 -22.3125 C 21.078125 -22.03125 20.703125 -21.679688 20.296875 -21.265625 C 20.085938 -21.066406 19.867188 -20.820312 19.640625 -20.53125 C 19.421875 -20.25 19.164062 -19.941406 18.875 -19.609375 C 18.59375 -19.285156 18.335938 -19 18.109375 -18.75 C 17.890625 -18.507812 17.695312 -18.304688 17.53125 -18.140625 L 17.28125 -17.84375 C 16.707031 -17.144531 16.117188 -16.550781 15.515625 -16.0625 L 14.71875 -15.390625 C 14.382812 -15.054688 14.132812 -14.847656 13.96875 -14.765625 C 13.5625 -14.359375 13.257812 -14.132812 13.0625 -14.09375 C 13.019531 -14.050781 12.96875 -14.019531 12.90625 -14 C 12.84375 -13.976562 12.769531 -13.953125 12.6875 -13.921875 C 12.519531 -13.835938 12.414062 -13.796875 12.375 -13.796875 C 12.34375 -13.753906 12.296875 -13.734375 12.234375 -13.734375 C 12.171875 -13.734375 12.117188 -13.710938 12.078125 -13.671875 C 12.035156 -13.628906 11.972656 -13.609375 11.890625 -13.609375 C 11.804688 -13.609375 11.722656 -13.585938 11.640625 -13.546875 C 11.566406 -13.503906 11.488281 -13.484375 11.40625 -13.484375 C 11.320312 -13.484375 11.257812 -13.484375 11.21875 -13.484375 C 11.132812 -13.441406 11.007812 -13.421875 10.84375 -13.421875 L 10.734375 -13.484375 C 10.523438 -13.523438 10.316406 -13.554688 10.109375 -13.578125 C 9.910156 -13.597656 9.707031 -13.609375 9.5 -13.609375 C 9.050781 -13.734375 8.601562 -13.957031 8.15625 -14.28125 C 7.945312 -14.445312 7.726562 -14.617188 7.5 -14.796875 C 7.28125 -14.984375 7.066406 -15.222656 6.859375 -15.515625 L 6.5 -15.9375 C 6.457031 -16.0625 6.40625 -16.171875 6.34375 -16.265625 C 6.28125 -16.367188 6.226562 -16.460938 6.1875 -16.546875 C 6.101562 -16.671875 6.023438 -16.816406 5.953125 -16.984375 C 5.867188 -17.265625 5.804688 -17.488281 5.765625 -17.65625 C 5.722656 -17.820312 5.679688 -17.941406 5.640625 -18.015625 C 5.597656 -18.140625 5.578125 -18.304688 5.578125 -18.515625 C 5.535156 -18.597656 5.515625 -18.738281 5.515625 -18.9375 C 5.515625 -19.101562 5.535156 -19.25 5.578125 -19.375 C 5.578125 -19.457031 5.578125 -19.523438 5.578125 -19.578125 C 5.578125 -19.640625 5.578125 -19.710938 5.578125 -19.796875 C 5.578125 -19.921875 5.597656 -20.003906 5.640625 -20.046875 C 5.679688 -20.128906 5.703125 -20.226562 5.703125 -20.34375 C 5.703125 -20.46875 5.722656 -20.570312 5.765625 -20.65625 C 5.804688 -20.738281 5.835938 -20.832031 5.859375 -20.9375 C 5.878906 -21.039062 5.910156 -21.128906 5.953125 -21.203125 C 5.984375 -21.367188 6.0625 -21.535156 6.1875 -21.703125 C 6.4375 -22.148438 6.679688 -22.515625 6.921875 -22.796875 C 7.003906 -22.960938 7.132812 -23.132812 7.3125 -23.3125 C 7.5 -23.5 7.738281 -23.738281 8.03125 -24.03125 C 8.6875 -24.476562 9.09375 -24.703125 9.25 -24.703125 C 9.863281 -24.984375 10.375 -25.125 10.78125 -25.125 C 10.90625 -25.164062 11.210938 -25.1875 11.703125 -25.1875 C 11.867188 -25.1875 11.992188 -25.1875 12.078125 -25.1875 C 12.160156 -25.1875 12.222656 -25.1875 12.265625 -25.1875 C 12.304688 -25.144531 12.332031 -25.125 12.34375 -25.125 C 12.363281 -25.125 12.375 -25.125 12.375 -25.125 C 12.375 -25.09375 12.394531 -25.078125 12.4375 -25.078125 Z M 12.4375 -25.078125 "/></g></g></g></g></g></g><g clip-path="url(#0045d06c1e)"><g clip-path="url(#c9e1b6ca70)"><g transform="matrix(1, 0, 0, 1, 359, 95)"><g clip-path="url(#1233f35f93)"><g clip-path="url(#61a373e26c)"><g clip-path="url(#f41d7c8459)"><rect x="-570.2" width="1382.4" fill="#fdffee" height="777.600001" y="-213.8" fill-opacity="1"/></g></g></g></g></g></g></svg>